<svg width="60" height="92" viewBox="0 0 60 92" fill="none" xmlns="http://www.w3.org/2000/svg"><g id="icon 1" clip-path="url(#clip0_326_16)"><g id="Group 161"><path id="scale" style=" transform-origin: center; transform-box: fill-box; animation: niceAnimate 2s linear infinite;" d="M36.797 68.54C35.8919 69.2975 34.8568 69.8843 33.742 70.272C32.4559 70.7209 31.1042 70.9533 29.742 70.96C28.3381 70.9783 26.9409 70.7641 25.607 70.326C24.4685 69.9521 23.4088 69.3714 22.481 68.613C21.6569 67.9229 20.985 67.0692 20.508 66.106C20.0439 65.1618 19.8044 64.1231 19.808 63.071V29.163C19.802 28.1108 20.0288 27.0703 20.472 26.116C20.9242 25.1547 21.578 24.3021 22.389 23.616C23.2853 22.863 24.3133 22.2826 25.421 21.904C26.702 21.4666 28.0486 21.2525 29.402 21.271C30.8018 21.253 32.1949 21.4683 33.524 21.908C34.6664 22.2889 35.732 22.87 36.671 23.624C37.5122 24.3031 38.1969 25.1559 38.678 26.124C39.1429 27.069 39.3825 28.1089 39.378 29.162V41.917C39.378 42.405 39.233 42.687 38.478 42.687H34.206C33.6769 42.6873 33.1586 42.5368 32.712 42.253C32.5302 42.1571 32.3793 42.0116 32.277 41.8333C32.1746 41.655 32.1251 41.4514 32.134 41.246V29.533C32.111 28.9693 31.8785 28.4344 31.482 28.033C30.983 27.5509 30.3193 27.2766 29.6255 27.2658C28.9317 27.2551 28.2598 27.5086 27.746 27.975C27.5324 28.1751 27.3613 28.4162 27.2429 28.6839C27.1246 28.9516 27.0613 29.2403 27.057 29.533V62.7C27.0635 62.9988 27.1326 63.293 27.2599 63.5634C27.3872 63.8339 27.5698 64.0746 27.796 64.27C28.2679 64.725 28.9006 64.9748 29.556 64.965C30.2368 64.9828 30.8981 64.7362 31.401 64.277C31.6351 64.085 31.8251 63.8449 31.9582 63.573C32.0912 63.301 32.1641 63.0036 32.172 62.701V50.948C32.1629 50.7426 32.2125 50.5389 32.3148 50.3606C32.4172 50.1823 32.5681 50.0368 32.75 49.941C33.1963 49.6573 33.7142 49.5067 34.243 49.507H38.521C39.167 49.507 39.384 49.707 39.384 50.316V63.07C39.3875 64.1037 39.1603 65.1252 38.719 66.06C38.2625 67.0129 37.6091 67.8581 36.802 68.54" fill="#742C2B"/><path id="Path 46" d="M54.42 36.574L53.369 37.331C53.3046 37.3786 53.2303 37.4112 53.1516 37.4263C53.0729 37.4413 52.9919 37.4385 52.9144 37.4181C52.8369 37.3977 52.7651 37.3601 52.7041 37.3081C52.6431 37.2562 52.5945 37.1912 52.562 37.118C52.3798 36.6652 52.3155 36.1736 52.3749 35.6892C52.4344 35.2047 52.6157 34.7433 52.902 34.348C52.9222 34.3192 52.9442 34.2919 52.968 34.266C53.567 33.6208 54.3822 33.2184 55.2586 33.1352C56.135 33.0521 57.0114 33.294 57.721 33.815C57.7499 33.8355 57.7776 33.8575 57.804 33.881C58.6517 34.6677 59.1761 35.7419 59.275 36.8942C59.3739 38.0465 59.0402 39.1943 58.339 40.114C58.322 40.137 58.294 40.171 58.276 40.191C57.2204 41.3007 55.7914 41.9805 54.2644 42.0992C52.7374 42.2179 51.2205 41.7672 50.006 40.834C49.9803 40.8146 49.9556 40.7939 49.932 40.772C49.825 40.672 49.722 40.565 49.622 40.458V51.558C49.699 51.476 49.777 51.396 49.857 51.316C49.8789 51.2951 49.9019 51.2754 49.926 51.257C51.0494 50.3887 52.4262 49.9121 53.846 49.9C54.6754 49.902 55.4956 50.0731 56.2566 50.4029C57.0176 50.7327 57.7034 51.2142 58.272 51.818C58.2956 51.8423 58.3173 51.8684 58.337 51.896C59.0373 52.8131 59.372 53.9576 59.2761 55.1075C59.1802 56.2574 58.6606 57.3306 57.818 58.119C57.797 58.138 57.76 58.168 57.737 58.184C57.0266 58.7133 56.1452 58.9606 55.2631 58.878C54.3811 58.7954 53.5609 58.3889 52.961 57.737C52.937 57.7113 52.915 57.6839 52.895 57.655C52.6119 57.2598 52.4331 56.7997 52.3751 56.3171C52.317 55.8345 52.3817 55.345 52.563 54.894C52.5955 54.8208 52.6441 54.7558 52.7051 54.7039C52.7661 54.6519 52.8379 54.6143 52.9154 54.5939C52.9929 54.5735 53.0739 54.5707 53.1526 54.5857C53.2313 54.6008 53.3056 54.6334 53.37 54.681L54.421 55.438C54.4962 55.4944 54.5559 55.5689 54.5945 55.6546C54.6332 55.7403 54.6495 55.8343 54.642 55.928C54.6375 55.9655 54.6375 56.0035 54.642 56.041C54.672 56.227 54.881 56.81 56.312 56.285C56.4066 56.2505 56.4895 56.1898 56.551 56.11C56.8469 55.701 57.0024 55.2072 56.9943 54.7025C56.9862 54.1978 56.8149 53.7093 56.506 53.31C56.4809 53.2743 56.4528 53.2409 56.422 53.21C55.7434 52.5852 54.8641 52.223 53.9423 52.1883C53.0206 52.1537 52.1166 52.4489 51.393 53.021C51.3614 53.0439 51.3319 53.0697 51.305 53.098C50.2862 54.1651 49.6886 55.5652 49.623 57.039C49.5574 58.5129 50.0281 59.9606 50.948 61.114C50.9696 61.1422 50.993 61.1689 51.018 61.194C52.725 62.8832 55.0295 63.8308 57.431 63.831H57.471L57.478 65.564L56.908 66.106H56.838C57.8038 67.381 58.4899 68.8452 58.8518 70.4032C59.2136 71.9611 59.243 73.5779 58.938 75.148C58.7045 76.3427 58.2103 77.4712 57.4907 78.453C56.7712 79.4349 55.8439 80.246 54.7751 80.8285C53.7062 81.411 52.522 81.7506 51.3069 81.8231C50.0917 81.8956 48.8756 81.6993 47.745 81.248C47.72 81.238 47.681 81.219 47.657 81.206C46.4824 80.5879 45.5363 79.6105 44.9568 78.4164C44.3773 77.2223 44.1948 75.8742 44.436 74.569C43.1736 75.5763 41.7405 76.3485 40.205 76.849C40.249 76.888 40.295 76.921 40.338 76.962C41.2235 77.7888 41.7448 78.9331 41.7876 80.1438C41.8303 81.3546 41.391 82.5328 40.566 83.42C39.9291 84.1018 39.0478 84.5032 38.1154 84.5362C37.183 84.5692 36.2755 84.2311 35.592 83.596C35.1354 83.1688 34.835 82.601 34.7385 81.9832C34.6421 81.3654 34.7553 80.733 35.06 80.187C35.1008 80.1166 35.1569 80.0563 35.2242 80.0107C35.2915 79.965 35.3683 79.9352 35.4488 79.9233C35.5293 79.9115 35.6114 79.918 35.689 79.9424C35.7666 79.9667 35.8377 80.0083 35.897 80.064L36.842 80.945C36.9097 81.0101 36.9598 81.0913 36.9874 81.181C37.0151 81.2708 37.0194 81.3661 37 81.458C36.9933 81.4953 36.9906 81.5332 36.992 81.571C36.998 81.761 37.133 82.371 38.627 82.014C38.7261 81.9913 38.8165 81.9402 38.887 81.867C39.0925 81.6479 39.2528 81.3905 39.3587 81.1094C39.4645 80.8282 39.5139 80.529 39.504 80.2288C39.494 79.9286 39.425 79.6333 39.3007 79.3598C39.1765 79.0863 38.9995 78.84 38.78 78.635C38.2299 78.1219 37.539 77.7848 36.796 77.667L34.078 78.267C33.836 78.4276 33.6135 78.6159 33.415 78.828C32.8799 79.4024 32.4633 80.0765 32.1888 80.8119C31.9143 81.5474 31.7873 82.3297 31.8152 83.1141C31.8431 83.8986 32.0252 84.6699 32.3511 85.384C32.6771 86.0981 33.1406 86.741 33.715 87.276C35.4234 88.8631 37.6741 89.7368 40.0059 89.7182C42.3377 89.6996 44.5741 88.7901 46.257 87.176C46.3564 87.0818 46.4881 87.0293 46.625 87.0293C46.7619 87.0293 46.8936 87.0818 46.993 87.176L47.878 88.001C47.9313 88.0517 47.9738 88.1128 48.0028 88.1804C48.0319 88.2481 48.0468 88.3209 48.0468 88.3945C48.0468 88.4681 48.0319 88.541 48.0028 88.6086C47.9738 88.6762 47.9313 88.7373 47.878 88.788C45.7759 90.8238 42.9729 91.9754 40.0468 92.0055C37.1207 92.0357 34.2946 90.942 32.151 88.95C30.8154 87.7121 29.9298 86.0649 29.634 84.268C29.461 85.3269 29.1079 86.3484 28.59 87.288C28.5753 87.3155 28.5586 87.3419 28.54 87.367C27.5715 88.6761 26.3344 89.7631 24.9117 90.5553C23.4889 91.3475 21.9133 91.8265 20.2904 91.9603C18.6675 92.0941 17.0347 91.8796 15.5015 91.3311C13.9682 90.7826 12.5698 89.9128 11.4 88.78C11.3472 88.729 11.3054 88.6678 11.277 88.6001C11.2486 88.5324 11.2342 88.4596 11.2348 88.3862C11.2353 88.3128 11.2508 88.2403 11.2802 88.173C11.3097 88.1058 11.3525 88.0452 11.406 87.995L12.291 87.17C12.3904 87.0758 12.5221 87.0233 12.659 87.0233C12.7959 87.0233 12.9276 87.0758 13.027 87.17C14.7097 88.7841 16.946 89.6935 19.2776 89.7121C21.6093 89.7307 23.8597 88.857 25.568 87.27C26.1426 86.7351 26.6061 86.0922 26.9322 85.3781C27.2582 84.664 27.4404 83.8927 27.4682 83.1082C27.4961 82.3236 27.3691 81.5413 27.0945 80.8059C26.82 80.0704 26.4032 79.3963 25.868 78.822C25.6697 78.6101 25.4475 78.4219 25.206 78.261L22.487 77.661C21.744 77.7788 21.0531 78.1159 20.503 78.629C20.2726 78.8441 20.0892 79.1046 19.9644 79.394C19.8395 79.6834 19.7759 79.9955 19.7775 80.3107C19.7791 80.6259 19.8459 80.9374 19.9736 81.2255C20.1014 81.5136 20.2874 81.7722 20.52 81.985C20.5537 82.0158 20.5906 82.043 20.63 82.066C20.8624 82.2073 21.1345 82.2691 21.4051 82.2421C21.6757 82.215 21.9302 82.1005 22.13 81.916C22.1902 81.8595 22.2357 81.7892 22.2625 81.7111C22.2894 81.633 22.2967 81.5496 22.284 81.468C22.264 81.374 22.2676 81.2764 22.2944 81.1841C22.3213 81.0918 22.3706 81.0076 22.438 80.939L23.387 80.056C23.445 80.0008 23.5146 79.9593 23.5908 79.9345C23.667 79.9098 23.7477 79.9025 23.8271 79.9132C23.9065 79.9238 23.9825 79.9522 24.0494 79.9961C24.1164 80.04 24.1726 80.0984 24.214 80.167C24.4528 80.5961 24.5781 81.079 24.5781 81.57C24.5781 82.061 24.4528 82.5439 24.214 82.973C24.198 83.0046 24.1792 83.0347 24.158 83.063C23.6541 83.7562 22.9195 84.2468 22.0862 84.4468C21.2529 84.6468 20.3756 84.543 19.612 84.154C19.5772 84.1373 19.5438 84.1179 19.512 84.096C18.9412 83.7111 18.4646 83.2025 18.1175 82.6079C17.7705 82.0134 17.562 81.3482 17.5076 80.6619C17.4532 79.9757 17.5543 79.286 17.8034 78.6442C18.0524 78.0024 18.443 77.425 18.946 76.955C18.989 76.915 19.035 76.881 19.079 76.842C17.6121 76.3657 16.2378 75.6412 15.016 74.7C15.2787 76.2649 14.9202 77.8705 14.0167 79.1749C13.1133 80.4794 11.7363 81.3796 10.179 81.684C8.02732 82.0988 5.79897 81.6432 3.98278 80.4171C2.16658 79.1911 0.910832 77.2947 0.491 75.144C0.184998 73.5708 0.214687 71.9507 0.578125 70.3898C0.941562 68.8288 1.63055 67.3622 2.6 66.086C2.526 66.092 2.452 66.101 2.378 66.104C2.30426 66.1084 2.23041 66.0976 2.16098 66.0724C2.09155 66.0472 2.02801 66.008 1.97425 65.9574C1.9205 65.9067 1.87767 65.8456 1.84839 65.7778C1.81911 65.71 1.80401 65.6369 1.804 65.563L1.811 63.831H1.852C3.76554 63.8337 5.63074 63.2301 7.18 62.107C8.46439 61.1788 9.32816 59.779 9.58181 58.2148C9.83546 56.6505 9.45827 55.0495 8.533 53.763C8.2176 53.3265 7.81302 52.962 7.34608 52.6937C6.87914 52.4254 6.36051 52.2594 5.82456 52.2068C5.28862 52.1541 4.7476 52.216 4.23736 52.3882C3.72713 52.5605 3.25934 52.8392 2.865 53.206C2.83335 53.2364 2.80487 53.2699 2.78 53.306C2.47165 53.7023 2.2992 54.1874 2.28821 54.6894C2.27722 55.1914 2.42828 55.6836 2.719 56.093C2.91025 56.3578 3.19871 56.536 3.52113 56.5885C3.84355 56.641 4.17363 56.5635 4.439 56.373C4.51086 56.3217 4.56787 56.2523 4.60423 56.1719C4.64059 56.0915 4.655 56.0028 4.646 55.915C4.64169 55.818 4.66254 55.7215 4.70652 55.635C4.7505 55.5484 4.81612 55.4747 4.897 55.421L5.916 54.686C5.98175 54.638 6.05751 54.6055 6.13761 54.591C6.21772 54.5764 6.30007 54.5802 6.37849 54.6021C6.45692 54.6239 6.52938 54.6632 6.59043 54.7171C6.65148 54.7709 6.69954 54.8379 6.731 54.913C6.96487 55.4927 6.998 56.1341 6.82511 56.7349C6.65222 57.3356 6.28326 57.8612 5.777 58.228C5.16129 58.6653 4.42366 58.8979 3.66848 58.8929C2.91331 58.8878 2.17883 58.6454 1.569 58.2C1.54027 58.1802 1.51287 58.1584 1.487 58.135C0.637521 57.3492 0.111327 56.2751 0.0111124 55.1222C-0.0891024 53.9694 0.243854 52.8206 0.945 51.9C0.961 51.878 0.99 51.843 1.008 51.823C1.55961 51.2365 2.22188 50.765 2.95662 50.4356C3.69135 50.1063 4.48401 49.9257 5.28889 49.9042C6.09376 49.8828 6.89493 50.0208 7.64618 50.3105C8.39743 50.6002 9.0839 51.0357 9.666 51.592V40.415C8.63886 41.3992 7.29969 41.9929 5.88069 42.0932C4.46169 42.1934 3.05233 41.794 1.897 40.964C1.34786 40.568 0.893465 40.055 0.566604 39.462C0.239742 38.8691 0.0485606 38.211 0.00685078 37.5352C-0.0348591 36.8594 0.0739428 36.1828 0.325407 35.5542C0.576872 34.9256 0.96473 34.3606 1.461 33.9C1.48642 33.8768 1.51313 33.8551 1.541 33.835C2.24969 33.3026 3.13058 33.0517 4.01344 33.131C4.89629 33.2102 5.71844 33.6139 6.321 34.264C6.34478 34.2902 6.36683 34.3179 6.387 34.347C6.67277 34.7424 6.85373 35.2037 6.91301 35.6879C6.97229 36.1721 6.90795 36.6634 6.726 37.116C6.69348 37.1892 6.64493 37.2542 6.58393 37.3061C6.52294 37.3581 6.45106 37.3957 6.3736 37.4161C6.29614 37.4365 6.21508 37.4393 6.13639 37.4243C6.05771 37.4092 5.98342 37.3766 5.919 37.329L4.9 36.594C4.81937 36.5401 4.754 36.4663 4.71021 36.3798C4.66642 36.2933 4.64568 36.1969 4.65 36.1C4.65893 36.0124 4.64458 35.9241 4.60841 35.8438C4.57224 35.7636 4.51552 35.6943 4.444 35.643C4.2249 35.4871 3.9616 35.4055 3.69272 35.4102C3.42385 35.4148 3.16354 35.5056 2.95 35.669C2.91305 35.6966 2.87948 35.7285 2.85 35.764C2.50156 36.1728 2.30506 36.6894 2.29376 37.2264C2.28246 37.7635 2.45706 38.2879 2.788 38.711C2.81311 38.7454 2.84158 38.7772 2.873 38.806C3.26739 39.1725 3.73517 39.4511 4.24534 39.6232C4.75552 39.7952 5.29644 39.857 5.83226 39.8042C6.36808 39.7514 6.88658 39.5854 7.35339 39.3171C7.8202 39.0488 8.22467 38.6844 8.54 38.248C9.46581 36.9604 9.84261 35.3578 9.5876 33.7926C9.33259 32.2273 8.46664 30.8272 7.18 29.9C5.75995 28.8696 4.07041 28.2754 2.318 28.19C2.18136 28.1824 2.05279 28.1228 1.95856 28.0236C1.86433 27.9243 1.81155 27.7929 1.811 27.656V26.447L2.384 25.905C2.43 25.905 2.474 25.913 2.519 25.916C2.419 25.788 2.331 25.657 2.241 25.523C1.39762 24.2832 0.808665 22.8884 0.508267 21.4194C0.207869 19.9504 0.202 18.4363 0.491 16.965C0.697168 15.8991 1.11143 14.8843 1.7101 13.9787C2.30876 13.073 3.08009 12.2943 3.97997 11.687C4.87984 11.0797 5.89061 10.6557 6.95446 10.4393C8.01832 10.223 9.11439 10.2184 10.18 10.426C10.9656 10.5797 11.7133 10.8867 12.3801 11.3296C13.0469 11.7725 13.6199 12.3425 14.0662 13.0071C14.5125 13.6717 14.8234 14.4177 14.981 15.2026C15.1387 15.9874 15.14 16.7956 14.985 17.581C16.2739 16.5789 17.7344 15.8196 19.295 15.34C19.177 15.24 19.058 15.151 18.945 15.045C18.0595 14.2182 17.5382 13.0739 17.4954 11.8632C17.4527 10.6524 17.892 9.47418 18.717 8.587C19.0736 8.20484 19.5108 7.90679 19.9968 7.71441C20.4828 7.52204 21.0056 7.44016 21.5271 7.47472C22.0487 7.50927 22.5561 7.65939 23.0125 7.9142C23.4689 8.16901 23.8629 8.52214 24.166 8.948C24.1868 8.97608 24.2052 9.00585 24.221 9.037C24.4587 9.46533 24.5835 9.94713 24.5835 10.437C24.5835 10.9269 24.4587 11.4087 24.221 11.837C24.1796 11.9056 24.1234 11.964 24.0564 12.0079C23.9895 12.0518 23.9135 12.0802 23.8341 12.0908C23.7547 12.1015 23.674 12.0942 23.5978 12.0694C23.5216 12.0447 23.452 12.0032 23.394 11.948L22.445 11.065C22.3776 10.9964 22.3283 10.9122 22.3014 10.8199C22.2746 10.7276 22.271 10.63 22.291 10.536C22.3037 10.4544 22.2964 10.371 22.2695 10.2929C22.2427 10.2148 22.1972 10.1445 22.137 10.088C21.9502 9.91688 21.7166 9.80547 21.4661 9.76805C21.2156 9.73063 20.9596 9.76892 20.731 9.878C20.6764 9.90129 20.6258 9.93301 20.581 9.972C20.3378 10.1812 20.1414 10.4393 20.0045 10.7294C19.8676 11.0195 19.7934 11.3352 19.7866 11.6559C19.7798 11.9767 19.8406 12.2952 19.9651 12.5909C20.0895 12.8866 20.2749 13.1527 20.509 13.372C20.9122 13.7475 21.3925 14.0304 21.9164 14.201C22.4402 14.3717 22.995 14.4259 23.542 14.36L24.299 14.194C24.9009 13.9949 25.4427 13.6467 25.874 13.182C26.7704 12.2049 27.3256 10.9633 27.4562 9.64372C27.5867 8.32414 27.2856 6.99782 26.598 5.864C26.5799 5.8334 26.5599 5.80401 26.538 5.776C25.7501 4.77385 24.7611 3.94778 23.6346 3.35098C22.5081 2.75418 21.2692 2.39986 19.9975 2.31084C18.7258 2.22183 17.4496 2.40008 16.2509 2.83412C15.0523 3.26817 13.9578 3.94839 13.038 4.831C12.9385 4.92524 12.8066 4.97777 12.6695 4.97777C12.5324 4.97777 12.4005 4.92524 12.301 4.831L11.416 4.006C11.3625 3.95527 11.3199 3.89417 11.2908 3.82643C11.2617 3.75869 11.2466 3.68573 11.2466 3.612C11.2466 3.53827 11.2617 3.46531 11.2908 3.39757C11.3199 3.32984 11.3625 3.26874 11.416 3.218C13.4379 1.24639 16.1235 0.101202 18.946 0.00700065C19.085 6.53788e-07 19.223 6.53725e-07 19.36 6.53725e-07C21.1453 -0.000603698 22.9058 0.417831 24.4998 1.22164C26.0939 2.02545 27.477 3.19219 28.538 4.628C28.5564 4.65376 28.5734 4.68046 28.589 4.708C29.1122 5.65509 29.4688 6.6851 29.643 7.753C29.8154 6.69297 30.1678 5.67023 30.685 4.729C30.7003 4.7018 30.717 4.67543 30.735 4.65C31.7025 3.33844 32.9393 2.24892 34.3623 1.45454C35.7854 0.660149 37.3619 0.179256 38.9861 0.0441131C40.6103 -0.0910303 42.2446 0.122701 43.7794 0.67097C45.3142 1.21924 46.7141 2.08937 47.885 3.223C47.9384 3.27381 47.9809 3.33493 48.0099 3.40266C48.0389 3.47039 48.0539 3.54331 48.0539 3.617C48.0539 3.69069 48.0389 3.76361 48.0099 3.83134C47.9809 3.89907 47.9384 3.96019 47.885 4.011L47 4.836C46.9009 4.92953 46.7698 4.98163 46.6335 4.98163C46.4972 4.98163 46.3661 4.92953 46.267 4.836C45.3461 3.95232 44.2502 3.27138 43.05 2.83707C41.8499 2.40276 40.572 2.22472 39.2988 2.31441C38.0257 2.4041 36.7854 2.75953 35.658 3.35781C34.5305 3.95609 33.541 4.78393 32.753 5.788C32.7314 5.81561 32.7116 5.84468 32.694 5.875C32.0095 7.00831 31.7105 8.33289 31.8419 9.65036C31.9734 10.9678 32.5281 12.2072 33.423 13.183C33.8528 13.6487 34.3931 13.9985 34.994 14.2L35.75 14.366C36.297 14.4319 36.8518 14.3777 37.3756 14.207C37.8995 14.0364 38.3798 13.7535 38.783 13.378C39.0027 13.1724 39.1796 12.9254 39.3036 12.6512C39.4276 12.377 39.4962 12.081 39.5055 11.7803C39.5148 11.4795 39.4646 11.1799 39.3577 10.8986C39.2509 10.6172 39.0896 10.3598 38.883 10.141C38.8118 10.0683 38.7212 10.0177 38.622 9.995C37.134 9.648 36.999 10.254 36.992 10.443C36.9906 10.4808 36.9933 10.5187 37 10.556C37.0194 10.6479 37.0151 10.7432 36.9874 10.833C36.9598 10.9227 36.9097 11.0039 36.842 11.069L35.897 11.95C35.8377 12.0057 35.7666 12.0473 35.689 12.0716C35.6114 12.096 35.5293 12.1025 35.4488 12.0907C35.3683 12.0788 35.2915 12.049 35.2242 12.0033C35.1569 11.9577 35.1008 11.8974 35.06 11.827C34.755 11.2796 34.6424 10.6457 34.7403 10.0267C34.8382 9.40778 35.1409 8.83956 35.6 8.413C36.2836 7.77815 37.191 7.44019 38.1234 7.47318C39.0557 7.50617 39.937 7.90742 40.574 8.589C41.399 9.47618 41.8383 10.6544 41.7956 11.8652C41.7528 13.0759 41.2315 14.2202 40.346 15.047C40.233 15.153 40.115 15.247 39.996 15.342C41.6289 15.8439 43.1516 16.6516 44.483 17.722C44.1955 16.3944 44.3509 15.0091 44.9256 13.7783C45.5003 12.5475 46.4625 11.5389 47.665 10.907C47.6931 10.8912 47.7221 10.8771 47.752 10.865C48.7334 10.4775 49.7788 10.2774 50.834 10.275C52.7516 10.2785 54.6086 10.9475 56.0879 12.1678C57.5671 13.3881 58.577 15.084 58.945 16.966C59.2344 18.4368 59.2291 19.9505 58.9296 21.4193C58.6301 22.8881 58.0422 24.2829 57.2 25.523C57.11 25.656 57.017 25.785 56.923 25.913L57.484 26.447V27.656C57.4843 27.7919 57.4327 27.9228 57.3398 28.0221C57.2469 28.1213 57.1197 28.1813 56.984 28.19C54.7482 28.3005 52.6312 29.2295 51.036 30.8C51.0096 30.8251 50.9855 30.8526 50.964 30.882C50.1346 31.9208 49.6655 33.2011 49.6276 34.5299C49.5897 35.8586 49.9851 37.1637 50.754 38.248C51.0698 38.685 51.4751 39.0498 51.9428 39.3182C52.4105 39.5865 52.9299 39.7523 53.4666 39.8044C54.0033 39.8565 54.5449 39.7938 55.0555 39.6205C55.5661 39.4471 56.034 39.1671 56.428 38.799C56.4584 38.7696 56.4865 38.7378 56.512 38.704C56.8403 38.2808 57.0128 37.7574 57.0004 37.2219C56.988 36.6864 56.7915 36.1716 56.444 35.764C56.415 35.7281 56.3814 35.6961 56.344 35.669C56.1308 35.505 55.8704 35.4138 55.6015 35.4089C55.3325 35.4041 55.069 35.4858 54.85 35.642C54.7967 35.6808 54.7516 35.7297 54.7172 35.786C54.6829 35.8423 54.6601 35.9048 54.65 35.97C54.6439 36.0073 54.6419 36.0452 54.644 36.083C54.6518 36.1766 54.6357 36.2707 54.5972 36.3564C54.5587 36.4421 54.4991 36.5166 54.424 36.573M49.624 63.017V63.278L49.667 63.056C49.652 63.043 49.638 63.031 49.624 63.017ZM47.266 77.835C47.544 78.2485 47.9012 78.6028 48.3169 78.8774C48.7326 79.152 49.1986 79.3415 49.688 79.435C51.2446 79.7371 52.8574 79.4089 54.1722 78.5226C55.487 77.6363 56.3962 76.2643 56.7 74.708C57.1444 72.4177 56.6945 70.0442 55.4427 68.0754C54.1909 66.1066 52.2325 64.6922 49.97 64.123C49.8937 64.1037 49.8226 64.0675 49.762 64.0172C49.7015 63.9668 49.6529 63.9035 49.62 63.832V63.913C49.6165 66.4419 48.9035 68.9192 47.562 71.063C48.2847 70.8361 49.0525 70.7932 49.796 70.938C50.7119 71.1168 51.5195 71.6516 52.0416 72.4251C52.5637 73.1987 52.7577 74.1477 52.581 75.064C52.4602 75.6797 52.136 76.237 51.6605 76.6465C51.1851 77.056 50.5858 77.2939 49.959 77.322C49.8787 77.3235 49.7991 77.3069 49.7261 77.2735C49.6531 77.24 49.5885 77.1906 49.5372 77.1289C49.4858 77.0672 49.449 76.9947 49.4294 76.9168C49.4098 76.839 49.408 76.7577 49.424 76.679L49.664 75.438C49.6792 75.343 49.7185 75.2534 49.7782 75.178C49.8379 75.1025 49.916 75.0436 50.005 75.007C50.0886 74.9786 50.1631 74.9285 50.2211 74.862C50.279 74.7954 50.3183 74.7147 50.335 74.628C50.3966 74.3073 50.3286 73.9752 50.1459 73.7045C49.9631 73.4339 49.6805 73.2467 49.36 73.184C48.867 73.0929 48.3578 73.1628 47.9076 73.3834C47.4574 73.604 47.0901 73.9636 46.86 74.409C46.8391 74.4469 46.822 74.4867 46.809 74.528C46.6276 75.0779 46.5749 75.6621 46.6548 76.2356C46.7347 76.8091 46.9452 77.3566 47.27 77.836M2.737 74.708C3.04042 76.2636 3.94866 77.6352 5.26236 78.5218C6.57606 79.4084 8.18787 79.7376 9.744 79.437C10.2734 79.3335 10.7747 79.1185 11.2145 78.8063C11.6544 78.4941 12.0227 78.0918 12.2951 77.6262C12.5674 77.1606 12.7375 76.6423 12.7941 76.1059C12.8506 75.5695 12.7923 75.0272 12.623 74.515C12.6095 74.4736 12.5917 74.4337 12.57 74.396C12.3223 73.9212 11.9186 73.5462 11.4269 73.334C10.9352 73.1219 10.3854 73.0855 9.87 73.231C9.82444 73.244 9.78049 73.2621 9.739 73.285C9.50378 73.4121 9.31509 73.6107 9.20021 73.8522C9.08534 74.0936 9.05024 74.3653 9.1 74.628C9.11251 74.6929 9.13778 74.7547 9.17434 74.8098C9.2109 74.8649 9.25803 74.9122 9.313 74.949C9.3441 74.9701 9.37769 74.9872 9.413 75C9.5011 75.0326 9.57956 75.0869 9.64109 75.1578C9.70262 75.2288 9.74524 75.3142 9.765 75.406L10.012 76.678C10.028 76.7564 10.0262 76.8374 10.0068 76.915C9.98739 76.9926 9.95081 77.0648 9.89976 77.1264C9.84872 77.188 9.78451 77.2374 9.71187 77.2709C9.63922 77.3044 9.55999 77.3212 9.48 77.32C8.99306 77.2957 8.52024 77.1482 8.10576 76.8915C7.69129 76.6348 7.34869 76.2771 7.11 75.852C7.09159 75.8221 7.07586 75.7907 7.063 75.758C6.72507 74.9397 6.70207 74.0252 6.99844 73.191C7.29481 72.3567 7.88956 71.6617 8.668 71.24C8.69807 71.2232 8.72913 71.2081 8.761 71.195C9.69179 70.8158 10.7209 70.7509 11.692 71.01C10.391 68.9078 9.69134 66.4891 9.669 64.017C9.60914 64.0673 9.53874 64.1035 9.463 64.123C7.20278 64.6957 5.2471 66.111 3.99661 68.0789C2.74611 70.0469 2.29547 72.4185 2.737 74.708M9.744 12.672C8.18801 12.3714 6.57633 12.7004 5.26266 13.5868C3.94899 14.4732 3.04065 15.8446 2.737 17.4C2.29161 19.6899 2.74048 22.0635 3.99132 24.0326C5.24215 26.0018 7.19988 27.4169 9.462 27.987C9.53941 28.0068 9.61125 28.0441 9.672 28.096C9.72161 25.5998 10.4609 23.166 11.808 21.064C10.8035 21.3627 9.72711 21.3094 8.757 20.913C8.72527 20.8999 8.69452 20.8845 8.665 20.867C7.88672 20.4449 7.29245 19.7494 6.99695 18.9148C6.70145 18.0802 6.7257 17.1658 7.065 16.348C7.0779 16.3155 7.09328 16.2841 7.111 16.254C7.35011 15.8297 7.69275 15.4728 8.10699 15.2167C8.52122 14.9605 8.99357 14.8134 9.48 14.789C9.55999 14.7878 9.63922 14.8046 9.71187 14.8381C9.78451 14.8716 9.84872 14.921 9.89976 14.9826C9.95081 15.0442 9.98739 15.1164 10.0068 15.194C10.0262 15.2716 10.028 15.3526 10.012 15.431L9.761 16.7C9.74094 16.7909 9.69825 16.8752 9.63689 16.9451C9.57552 17.015 9.49747 17.0683 9.41 17.1C9.37504 17.1144 9.34155 17.1322 9.31 17.153C9.25493 17.1899 9.20773 17.2373 9.17117 17.2926C9.1346 17.3479 9.10939 17.4099 9.097 17.475C9.04783 17.7382 9.08386 18.0102 9.19985 18.2516C9.31584 18.4929 9.50575 18.691 9.742 18.817C9.78306 18.84 9.8267 18.8582 9.872 18.871C10.3876 19.0164 10.9376 18.9797 11.4293 18.7671C11.9211 18.5546 12.3246 18.1792 12.572 17.704C12.5932 17.6665 12.6106 17.627 12.624 17.586C12.7931 17.0739 12.8513 16.5317 12.7947 15.9954C12.7381 15.4591 12.5679 14.9409 12.2956 14.4755C12.0233 14.01 11.655 13.6078 11.2152 13.2956C10.7754 12.9835 10.2743 12.7685 9.745 12.665M38.452 17.3L35.34 16.615C35.0533 16.5731 34.7699 16.511 34.492 16.429L33.549 16.222C32.7415 16.0548 31.9776 15.7218 31.3054 15.2441C30.6333 14.7665 30.0675 14.1545 29.644 13.447C29.2205 14.1545 28.6547 14.7665 27.9826 15.2441C27.3104 15.7218 26.5465 16.0548 25.739 16.222L24.797 16.429C24.5188 16.5111 24.2351 16.5732 23.948 16.615L20.836 17.3C18.3245 17.8653 16.0789 19.2654 14.4659 21.2716C12.8529 23.2779 11.9677 25.7717 11.955 28.346V63.912C11.9677 66.4863 12.8529 68.9801 14.4659 70.9864C16.0789 72.9926 18.3245 74.3927 20.836 74.958L22.621 75.351C22.778 75.339 22.935 75.329 23.091 75.329C24.1507 75.3286 25.1923 75.6044 26.113 76.129C27.5925 76.5333 28.8584 77.4939 29.646 78.81C30.4338 77.4941 31.6996 76.5336 33.179 76.129C34.0997 75.6044 35.1413 75.3286 36.201 75.329C36.357 75.329 36.514 75.339 36.67 75.351L38.455 74.958C40.9665 74.3929 43.2122 72.9929 44.8253 70.9866C46.4384 68.9803 47.3235 66.4863 47.336 63.912V28.344C47.3228 25.7696 46.4371 23.2758 44.8235 21.2699C43.2099 19.2639 40.9638 17.8644 38.452 17.3ZM56.696 17.4C56.5313 16.5582 56.1874 15.7616 55.6879 15.0643C55.1883 14.3669 54.5447 13.7852 53.8006 13.3584C53.0564 12.9316 52.2293 12.6698 51.3751 12.5907C50.521 12.5116 49.6598 12.6171 48.85 12.9C48.8157 12.9136 48.7823 12.9293 48.75 12.947C47.9275 13.3633 47.2804 14.0594 46.9252 14.9101C46.57 15.7608 46.5298 16.7104 46.812 17.588C46.8247 17.6291 46.8418 17.6686 46.863 17.706C47.0937 18.1508 47.4612 18.5096 47.9113 18.7296C48.3614 18.9497 48.8703 19.0192 49.363 18.928C49.6835 18.8653 49.9661 18.6781 50.1489 18.4075C50.3316 18.1368 50.3997 17.8047 50.338 17.484C50.3215 17.3975 50.2825 17.317 50.2249 17.2504C50.1673 17.1839 50.0932 17.1337 50.01 17.105C49.9203 17.0685 49.8416 17.0095 49.7815 16.9336C49.7214 16.8578 49.682 16.7676 49.667 16.672L49.427 15.433C49.411 15.3543 49.4128 15.273 49.4324 15.1952C49.452 15.1173 49.4888 15.0448 49.5402 14.9831C49.5915 14.9214 49.6561 14.872 49.7291 14.8385C49.8021 14.8051 49.8817 14.7885 49.962 14.79C50.5889 14.8181 51.1881 15.056 51.6635 15.4655C52.139 15.875 52.4632 16.4323 52.584 17.048C52.7601 17.9639 52.566 18.9123 52.0442 19.6853C51.5223 20.4583 50.7153 20.9929 49.8 21.172C49.0142 21.3255 48.2017 21.2686 47.445 21.007C48.8505 23.174 49.606 25.6982 49.622 28.281C49.6548 28.2089 49.7034 28.145 49.7641 28.0941C49.8249 28.0433 49.8962 28.0066 49.973 27.987C52.2355 27.4173 54.1937 26.0024 55.4449 24.0332C56.6962 22.064 57.1453 19.6902 56.7 17.4M49.647 28.969L49.62 28.831V28.992L49.647 28.968" fill="#C4A381"/><path id="Rectangle 26" d="M56.278 44.984H51.92C51.5953 44.984 51.332 45.2473 51.332 45.572V46.684C51.332 47.0087 51.5953 47.272 51.92 47.272H56.278C56.6027 47.272 56.866 47.0087 56.866 46.684V45.572C56.866 45.2473 56.6027 44.984 56.278 44.984Z" fill="#742C2B"/><path id="Rectangle 27" d="M7.20799 44.984H2.84999C2.52525 44.984 2.26199 45.2473 2.26199 45.572V46.684C2.26199 47.0087 2.52525 47.272 2.84999 47.272H7.20799C7.53274 47.272 7.79599 47.0087 7.79599 46.684V45.572C7.79599 45.2473 7.53274 44.984 7.20799 44.984Z" fill="#742C2B"/></g></g><defs><clipPath id="clip0_326_16"><rect width="59.289" height="92" fill="white"/></clipPath></defs><style> @keyframes niceAnimate { 0% { transform: scale(1); } 50%{ transform: scale(.8); } 100% { transform: scale(1); } }</style></svg>