<svg width="151" height="60" viewBox="0 0 151 60" fill="none" xmlns="http://www.w3.org/2000/svg"><g id="carverslogo"><g id="Group 160"><path id="Vector" d="M37.243 18.643C36.7606 18.2404 36.2158 17.9192 35.63 17.692C34.9522 17.4225 34.236 17.2618 33.508 17.216C33.323 17.201 33.14 17.195 32.961 17.195C32.4096 17.1904 31.86 17.2577 31.326 17.395C30.7424 17.541 30.1931 17.7999 29.709 18.157C29.2868 18.4761 28.9419 18.8863 28.7 19.357C28.4628 19.8241 28.3411 20.3412 28.345 20.865V39.377C28.3406 39.9033 28.4569 40.4237 28.685 40.898C28.9127 41.3656 29.2466 41.7735 29.66 42.089C30.1281 42.4448 30.662 42.7045 31.231 42.853C31.9155 43.0329 32.6254 43.0965 33.331 43.041C34.0787 43.001 34.8159 42.8468 35.517 42.584C36.1198 42.3593 36.6823 42.0389 37.183 41.635C37.6124 41.287 37.966 40.8548 38.222 40.365C38.458 39.9143 38.5806 39.4128 38.579 38.904V32.446C38.585 32.3984 38.5759 32.3501 38.553 32.308C38.553 32.308 38.499 32.254 38.261 32.254L35.953 32.271C35.6951 32.2724 35.4426 32.3447 35.223 32.48C35.1534 32.5099 35.0945 32.5602 35.0542 32.6244C35.0138 32.6885 34.9939 32.7633 34.997 32.839V38.887C34.9835 39.2312 34.8406 39.5575 34.597 39.801C34.4511 39.9567 34.2746 40.0805 34.0786 40.1648C33.8826 40.2492 33.6714 40.2921 33.458 40.291C33.2589 40.3079 33.0585 40.2836 32.8693 40.2196C32.68 40.1556 32.506 40.0532 32.358 39.919C32.2227 39.8014 32.1137 39.6565 32.0384 39.4938C31.9631 39.3311 31.9231 39.1543 31.921 38.975V21.265C31.9244 21.0813 31.9684 20.9005 32.0499 20.7358C32.1313 20.571 32.2481 20.4263 32.392 20.312C32.6864 20.0546 33.0708 19.9244 33.461 19.95C33.8642 19.96 34.2501 20.116 34.547 20.389C34.6897 20.5075 34.8054 20.6553 34.8863 20.8222C34.9672 20.9892 35.0114 21.1715 35.016 21.357V27.421C35.0126 27.4967 35.0324 27.5717 35.0728 27.6359C35.1132 27.7 35.1722 27.7503 35.242 27.78C35.4614 27.9156 35.7141 27.9879 35.972 27.989L38.282 28.006C38.456 28.013 38.527 27.976 38.547 27.954C38.5743 27.905 38.5855 27.8487 38.579 27.793V21.341C38.5806 20.8412 38.4641 20.3482 38.239 19.902C37.9951 19.4185 37.6548 18.99 37.239 18.643" fill="white"/><path id="Vector_2" d="M50.157 18.848C50.1535 18.7404 50.1188 18.6362 50.057 18.548C49.9243 18.4802 49.7755 18.4504 49.627 18.462C47.906 18.4 47.045 18.362 45.327 18.29C45.1765 18.2664 45.0225 18.2836 44.881 18.34C44.8401 18.422 44.8185 18.5123 44.818 18.604C43.973 26.426 43.134 34.268 42.318 41.914C42.3126 41.9685 42.3102 42.0232 42.311 42.078C42.363 42.078 42.437 42.078 42.539 42.078C43.424 42.035 43.864 42.016 44.749 41.978C45.0539 41.9612 45.3441 41.8413 45.572 41.638C45.6817 41.557 45.7726 41.4532 45.8383 41.3338C45.9041 41.2143 45.9432 41.082 45.953 40.946L46.121 38.103L46.556 38.088L48.379 38.039L48.841 38.026L49.012 40.874C49.0166 40.992 49.051 41.1069 49.112 41.208C49.1809 41.32 49.2717 41.417 49.379 41.493C49.4995 41.581 49.6327 41.6501 49.774 41.698C49.91 41.746 50.054 41.767 50.198 41.76C51.082 41.727 51.525 41.713 52.41 41.682C52.4993 41.6823 52.5884 41.6736 52.676 41.656C52.678 41.6006 52.676 41.5451 52.67 41.49C51.815 33.872 50.97 26.257 50.15 18.853M46.237 35.835L47.022 21.948H47.972L48.736 35.792L46.237 35.835Z" fill="white"/><path id="Path 37" d="M65.398 19.962C64.918 19.5994 64.3801 19.3208 63.807 19.138C63.1135 18.9178 62.3906 18.8038 61.663 18.8C59.72 18.762 58.763 18.741 56.782 18.688C56.6775 18.6818 56.5726 18.6892 56.47 18.71C56.4536 18.7777 56.4465 18.8474 56.449 18.917V41.317C56.4465 41.3866 56.4536 41.4563 56.47 41.524C56.5726 41.5449 56.6774 41.5529 56.782 41.548C57.643 41.524 58.073 41.512 58.935 41.493C59.0834 41.4894 59.23 41.4596 59.368 41.405C59.4995 41.3549 59.6216 41.2829 59.729 41.192C59.8276 41.1071 59.9106 41.0056 59.974 40.892C60.0241 40.8037 60.0496 40.7035 60.048 40.602V32.392L61.569 32.385H61.578C61.9668 32.3744 62.3469 32.5015 62.651 32.744C62.7962 32.85 62.915 32.9881 62.9982 33.1475C63.0815 33.3069 63.1269 33.4832 63.131 33.663V40.563C63.1288 40.6672 63.1525 40.7702 63.2 40.863C63.2554 40.9677 63.3316 41.0599 63.424 41.134C63.5259 41.2215 63.6433 41.2894 63.77 41.334C63.9034 41.3827 64.045 41.4051 64.187 41.4C65.056 41.386 65.487 41.381 66.362 41.37C66.4736 41.3728 66.585 41.36 66.693 41.332C66.7071 41.2629 66.7135 41.1925 66.712 41.122V33.619C66.7284 33.417 66.7037 33.2139 66.6394 33.0217C66.5752 32.8296 66.4726 32.6524 66.338 32.501C65.9942 32.1861 65.5734 31.9678 65.118 31.868L63.761 31.511L65.056 30.969C65.5404 30.7848 65.9694 30.4794 66.302 30.082C66.5849 29.7134 66.7297 29.2573 66.711 28.793V22.4C66.7121 21.9454 66.5975 21.498 66.378 21.1C66.1342 20.6573 65.8 20.271 65.397 19.966M63.131 28.731C63.1269 28.9081 63.0872 29.0825 63.0144 29.244C62.9415 29.4055 62.837 29.5507 62.707 29.671C62.5687 29.8096 62.404 29.9189 62.2225 29.9924C62.0411 30.066 61.8467 30.1022 61.651 30.099H60.051V21.07L61.578 21.094C61.9711 21.0877 62.3538 21.2209 62.658 21.47C62.8023 21.5771 62.9202 21.7157 63.0027 21.8754C63.0852 22.035 63.1301 22.2114 63.134 22.391L63.131 28.731Z" fill="white"/><path id="Path 38" d="M80.479 18.91C79.601 18.917 79.161 18.919 78.279 18.922C78.1328 18.926 77.9883 18.9537 77.851 19.004C77.7047 19.0539 77.5668 19.1257 77.442 19.217C77.3289 19.2984 77.2319 19.4001 77.156 19.517C77.0952 19.6062 77.0583 19.7095 77.049 19.817L76.006 37.885H75.057L73.992 19.818C73.9812 19.708 73.9445 19.6021 73.885 19.509C73.8171 19.3948 73.7262 19.2961 73.618 19.219C73.4934 19.1269 73.3555 19.0544 73.209 19.004C73.0719 18.9535 72.9271 18.9271 72.781 18.926C71.903 18.926 71.465 18.921 70.581 18.914C70.467 18.914 70.381 18.914 70.331 18.926C70.3311 18.9711 70.3341 19.0162 70.34 19.061C71.1807 26.365 72.0213 33.672 72.862 40.982C72.883 41.191 72.933 41.238 72.933 41.238C73.0586 41.2934 73.1962 41.3164 73.333 41.305C74.082 41.305 74.672 41.305 75.233 41.305C75.995 41.305 76.713 41.305 77.722 41.305H77.729C77.8657 41.3214 78.0042 41.2992 78.129 41.241C78.1746 41.1655 78.1991 41.0792 78.2 40.991V40.984C79.0427 33.674 79.8833 26.3623 80.722 19.049C80.7282 19.0056 80.7302 18.9618 80.728 18.918C80.646 18.9093 80.5635 18.9053 80.481 18.906" fill="white"/><path id="Path 39" d="M92.208 18.798C92.1035 18.7382 91.9826 18.7133 91.863 18.727C89.516 18.787 87.134 18.827 84.786 18.862C84.6742 18.8582 84.5625 18.872 84.455 18.903C84.4386 18.9714 84.4312 19.0417 84.433 19.112V41.14C84.4323 41.2055 84.4386 41.2709 84.452 41.335C84.5674 41.3636 84.6861 41.3767 84.805 41.374C87.126 41.404 89.505 41.449 91.863 41.509C91.9826 41.5217 92.1031 41.4969 92.208 41.438C92.225 41.426 92.258 41.4 92.258 41.281V40.698C92.2736 40.4944 92.2487 40.2898 92.1849 40.0958C92.121 39.9019 92.0195 39.7225 91.886 39.568C91.7374 39.4311 91.5626 39.3258 91.3722 39.2584C91.1817 39.191 90.9796 39.163 90.778 39.176L88.504 39.14L88.035 39.133V31.379H90.09H90.099C90.2941 31.3959 90.4906 31.3718 90.6757 31.308C90.8609 31.2443 91.0306 31.1424 91.174 31.009C91.4345 30.7017 91.5651 30.305 91.538 29.903V29.323C91.538 29.202 91.502 29.172 91.484 29.159C91.3879 29.0977 91.2746 29.0693 91.161 29.078H91.156L88.035 29.084V21.101L88.504 21.095L90.778 21.062C90.9799 21.0744 91.1822 21.0453 91.3724 20.9765C91.5626 20.9077 91.7367 20.8007 91.884 20.662C92.1518 20.3508 92.2862 19.9466 92.258 19.537V18.954C92.258 18.835 92.225 18.812 92.208 18.797" fill="white"/><path id="Path 40" d="M105.677 19.409C105.204 19.0589 104.671 18.7992 104.104 18.643C103.41 18.454 102.69 18.3777 101.972 18.417C100.021 18.491 99.063 18.524 97.095 18.589C96.9829 18.586 96.8712 18.6012 96.764 18.634C96.7422 18.7103 96.7327 18.7897 96.736 18.869V41.369C96.733 41.4477 96.7425 41.5263 96.764 41.602C96.8715 41.6337 96.983 41.6495 97.095 41.649C97.956 41.675 98.387 41.69 99.249 41.72C99.3927 41.7274 99.5364 41.7063 99.672 41.658C99.8 41.6167 99.9188 41.5512 100.022 41.465C100.118 41.3839 100.199 41.2864 100.261 41.177C100.311 41.0852 100.337 40.9817 100.334 40.877V32.456L101.857 32.469C102.254 32.462 102.641 32.5995 102.944 32.856C103.087 32.9677 103.203 33.1095 103.284 33.2713C103.366 33.4331 103.41 33.6109 103.415 33.792V40.955C103.414 41.0695 103.439 41.1828 103.488 41.286C103.546 41.4031 103.625 41.5088 103.721 41.598C103.827 41.6946 103.948 41.7733 104.08 41.831C104.21 41.889 104.35 41.9229 104.492 41.931C105.363 41.967 105.792 41.985 106.664 42.031C106.764 42.0389 106.865 42.0332 106.964 42.014C106.979 41.9387 106.986 41.8619 106.985 41.785V33.831C107.016 33.3902 106.879 32.9539 106.6 32.611C106.264 32.2797 105.844 32.046 105.386 31.935L104.103 31.568L105.326 31.041C105.814 30.8446 106.242 30.5239 106.567 30.111C106.856 29.7053 107.003 29.215 106.984 28.717V21.936C106.985 21.4551 106.87 20.9812 106.649 20.554C106.413 20.1058 106.08 19.7152 105.676 19.41M103.413 28.684C103.405 29.0459 103.255 29.39 102.994 29.641C102.858 29.785 102.693 29.899 102.51 29.976C102.328 30.0529 102.131 30.0911 101.933 30.088H100.333V20.861L101.839 20.819C102.235 20.7957 102.626 20.9212 102.934 21.171C103.08 21.2792 103.199 21.4192 103.282 21.5804C103.365 21.7416 103.41 21.9197 103.414 22.101L103.413 28.684Z" fill="white"/><path id="Path 41" d="M120.531 18.189C120.044 17.8328 119.494 17.5734 118.909 17.425C118.2 17.2451 117.466 17.1826 116.736 17.24C116.013 17.2769 115.3 17.4271 114.624 17.685C114.043 17.9083 113.502 18.2259 113.024 18.625C112.608 18.9733 112.268 19.4032 112.024 19.888C111.799 20.3436 111.684 20.8451 111.686 21.353C111.671 22.5478 111.829 23.7385 112.155 24.888C112.457 25.9023 112.859 26.8842 113.355 27.819C113.834 28.7132 114.36 29.5812 114.932 30.419C115.506 31.261 116.053 32.125 116.552 32.99C117.062 33.8668 117.488 34.7895 117.826 35.746C118.18 36.7791 118.355 37.865 118.344 38.957C118.341 39.1407 118.297 39.3213 118.215 39.4859C118.134 39.6506 118.017 39.7951 117.873 39.909C117.721 40.0387 117.545 40.1372 117.355 40.1988C117.165 40.2604 116.964 40.2839 116.765 40.268C116.375 40.2557 116.003 40.0985 115.723 39.827C115.584 39.7081 115.472 39.5612 115.394 39.3959C115.315 39.2307 115.273 39.0508 115.269 38.868V35.566C115.272 35.5047 115.255 35.444 115.219 35.394C115.164 35.313 115.092 35.2449 115.008 35.194C114.902 35.1257 114.786 35.0741 114.665 35.041C114.542 35.0049 114.415 34.9848 114.287 34.981L111.977 34.938C111.889 34.9265 111.799 34.9425 111.72 34.984C111.692 35.0382 111.681 35.0994 111.687 35.16V38.888C111.684 39.3959 111.8 39.8975 112.025 40.353C112.268 40.8382 112.608 41.2682 113.025 41.616C113.508 42.0197 114.055 42.3382 114.645 42.558C115.342 42.8183 116.076 42.97 116.819 43.008C117.548 43.0672 118.283 43.0054 118.992 42.825C119.57 42.6797 120.114 42.4218 120.592 42.066C121.007 41.7484 121.342 41.3383 121.57 40.8683C121.799 40.3983 121.915 39.8815 121.908 39.359C121.925 37.9962 121.766 36.6369 121.434 35.315C121.143 34.1986 120.743 33.1131 120.242 32.074C119.787 31.1401 119.264 30.2407 118.677 29.383C118.091 28.536 117.547 27.699 117.059 26.892C116.563 26.0797 116.141 25.2246 115.798 24.337C115.438 23.3882 115.259 22.3806 115.268 21.366C115.287 21.0254 115.433 20.7043 115.677 20.466C115.814 20.3125 115.981 20.1889 116.168 20.1029C116.355 20.0169 116.558 19.9703 116.764 19.966C117.166 19.9343 117.565 20.0634 117.872 20.325C118.016 20.4392 118.133 20.5839 118.214 20.7487C118.296 20.9134 118.34 21.0942 118.343 21.278V24.966C118.339 25.0396 118.357 25.1126 118.396 25.1752C118.435 25.2378 118.492 25.287 118.56 25.316C118.78 25.4441 119.031 25.5089 119.285 25.503L121.591 25.456C121.901 25.451 121.901 25.368 121.901 25.206V20.887C121.904 20.3637 121.782 19.8472 121.544 19.381C121.3 18.9118 120.953 18.5042 120.528 18.189" fill="white"/><path id="Path 42" d="M142.165 30.075C143.153 29.9565 144.107 29.6416 144.972 29.1487C145.837 28.6558 146.594 27.9949 147.199 27.205C150.88 22.352 151.499 14.045 146.545 9.417L146.111 9.011C146.043 8.94681 145.962 8.89674 145.875 8.86365C145.787 8.83056 145.693 8.81511 145.6 8.81818C145.506 8.82124 145.414 8.84277 145.328 8.88152C145.243 8.92027 145.166 8.97548 145.102 9.044L144.29 9.914C144.161 10.0525 144.092 10.2365 144.099 10.4257C144.105 10.615 144.187 10.7938 144.325 10.923L144.759 11.328C148.618 14.937 148.044 21.76 145.114 25.628C144.684 26.1787 144.141 26.6317 143.523 26.9568C142.904 27.282 142.224 27.4719 141.526 27.514C140.736 27.5879 139.94 27.4973 139.186 27.2481C138.433 26.9989 137.74 26.5964 137.15 26.066C136.697 25.6375 136.367 25.0963 136.193 24.498C136.146 24.279 136.103 24.072 136.06 23.872V23.863C135.989 23.2839 136.037 22.6963 136.202 22.1365C136.366 21.5767 136.644 21.0566 137.017 20.608C137.209 20.367 137.449 20.1676 137.72 20.022C137.992 19.8764 138.291 19.7876 138.598 19.761C138.832 19.7449 139.067 19.7773 139.288 19.8563C139.508 19.9353 139.71 20.0591 139.881 20.22C140.097 20.4714 140.216 20.792 140.216 21.1235C140.216 21.455 140.097 21.7756 139.881 22.027C139.854 22.0643 139.82 22.0958 139.781 22.1196C139.742 22.1433 139.698 22.1588 139.653 22.165C139.625 22.1666 139.597 22.162 139.571 22.1516C139.545 22.1413 139.522 22.1254 139.503 22.105L139.072 21.695C139.004 21.6301 138.925 21.5791 138.837 21.5451C138.75 21.5111 138.656 21.4947 138.563 21.4968C138.469 21.499 138.377 21.5196 138.291 21.5576C138.205 21.5955 138.128 21.65 138.063 21.718L137.24 22.579C137.175 22.6468 137.124 22.7267 137.091 22.8141C137.057 22.9015 137.041 22.9948 137.043 23.0885C137.045 23.1822 137.066 23.2746 137.104 23.3603C137.142 23.446 137.196 23.5234 137.264 23.588L137.694 23.999C137.973 24.2681 138.306 24.4762 138.67 24.6102C139.034 24.7441 139.422 24.8009 139.809 24.777C140.214 24.7493 140.609 24.6385 140.969 24.4514C141.329 24.2644 141.646 24.0052 141.902 23.69C142.539 22.9259 142.868 21.9521 142.825 20.9586C142.783 19.965 142.372 19.0229 141.672 18.316C141.242 17.9084 140.732 17.5942 140.175 17.3932C139.618 17.1922 139.025 17.1087 138.434 17.148C137.77 17.1962 137.123 17.3794 136.533 17.6863C135.942 17.9932 135.421 18.4175 135 18.933C134.976 18.9598 134.954 18.9878 134.933 19.017C134.462 17.6103 133.742 16.3 132.806 15.149C132.985 15.165 133.162 15.173 133.339 15.173C134.929 15.1071 136.449 14.4982 137.645 13.4477C138.84 12.3972 139.64 10.9686 139.91 9.4C140.14 8.253 140.12 7.07006 139.852 5.93134C139.585 4.79262 139.075 3.72472 138.359 2.8C137.746 1.97951 136.96 1.30468 136.056 0.823887C135.152 0.343089 134.153 0.0682274 133.13 0.0190002C130.024 -0.0305746 127.007 1.0542 124.644 3.07V2.598C124.643 2.40881 124.567 2.22777 124.432 2.09465C124.298 1.96153 124.116 1.8872 123.927 1.888L122.737 1.893C122.643 1.89339 122.55 1.91225 122.464 1.9485C122.378 1.98474 122.299 2.03767 122.233 2.10425C122.167 2.17083 122.115 2.24976 122.079 2.33653C122.044 2.42331 122.026 2.51624 122.026 2.61V3.204C121.99 5.10265 121.399 6.94924 120.326 8.516C119.42 9.74869 118.109 10.6235 116.622 10.9875C115.136 11.3514 113.569 11.1813 112.196 10.507C111.876 10.3281 111.598 10.0822 111.382 9.78599C111.165 9.48983 111.015 9.15044 110.942 8.791C110.852 8.3513 110.856 7.89771 110.953 7.45951C111.049 7.02131 111.237 6.60825 111.503 6.247C111.835 5.77362 112.321 5.42935 112.877 5.27231C113.434 5.11527 114.027 5.15507 114.558 5.385C114.631 5.42312 114.696 5.47706 114.746 5.54294C114.796 5.60882 114.831 5.685 114.848 5.766C114.87 5.89503 114.865 6.02721 114.833 6.15412C114.801 6.28102 114.743 6.39984 114.662 6.503C114.601 6.59258 114.513 6.66035 114.411 6.69634C114.309 6.73234 114.198 6.73467 114.095 6.703L113.579 6.409C113.415 6.31513 113.22 6.29042 113.037 6.3403C112.854 6.39018 112.699 6.51058 112.605 6.675L112.016 7.708C111.97 7.78948 111.94 7.87931 111.928 7.97236C111.916 8.06542 111.923 8.15986 111.948 8.25031C111.973 8.34076 112.015 8.42544 112.072 8.49951C112.13 8.57358 112.201 8.63559 112.283 8.682L112.799 8.976C113.467 9.33547 114.243 9.4369 114.981 9.26099C115.718 9.08508 116.365 8.6441 116.799 8.022C117.093 7.61883 117.299 7.15834 117.403 6.67045C117.508 6.18255 117.508 5.67815 117.405 5.19C117.306 4.74957 117.115 4.33527 116.843 3.97483C116.572 3.61439 116.226 3.31612 115.83 3.1C114.743 2.55725 113.499 2.42021 112.32 2.71352C111.141 3.00684 110.106 3.71126 109.4 4.7C108.911 5.3593 108.568 6.11513 108.394 6.91724C108.22 7.71934 108.219 8.54933 108.39 9.352C108.574 10.2155 108.975 11.0179 109.554 11.684V11.684C98.954 12.4 88.273 12.803 77.68 12.884C74.287 12.894 70.854 12.875 67.48 12.835C58.54 12.672 49.54 12.287 40.6 11.68C41.2186 10.9683 41.6383 10.1059 41.817 9.18C41.9647 8.40283 41.9497 7.60347 41.7729 6.83239C41.5961 6.06131 41.2615 5.33524 40.79 4.7C40.085 3.70906 39.0487 3.00306 37.8685 2.70961C36.6883 2.41616 35.442 2.55464 34.355 3.1C33.9593 3.31636 33.6144 3.6149 33.3437 3.97555C33.0729 4.33621 32.8824 4.75064 32.785 5.191C32.6813 5.67897 32.6817 6.18331 32.7861 6.67112C32.8905 7.15893 33.0966 7.61924 33.391 8.022C33.8245 8.6441 34.4717 9.08508 35.2093 9.26099C35.9468 9.4369 36.7234 9.33547 37.391 8.976L37.907 8.682C37.9892 8.63526 38.0613 8.57264 38.1192 8.4978C38.177 8.42295 38.2194 8.33736 38.2438 8.24599C38.2683 8.15463 38.2744 8.05932 38.2617 7.96559C38.249 7.87186 38.2179 7.78158 38.17 7.7L37.581 6.667C37.4871 6.50258 37.3317 6.38218 37.1491 6.3323C36.9664 6.28242 36.7714 6.30713 36.607 6.401L36.091 6.701C35.9875 6.73267 35.8766 6.73034 35.7746 6.69434C35.6725 6.65835 35.5847 6.59058 35.524 6.501C35.4436 6.39758 35.3856 6.27855 35.3538 6.15149C35.3219 6.02442 35.3169 5.89212 35.339 5.763C35.3563 5.6822 35.3912 5.60619 35.4411 5.54035C35.4911 5.47452 35.5549 5.42046 35.628 5.382C36.1587 5.15226 36.7523 5.11256 37.3088 5.26959C37.8654 5.42662 38.3507 5.77077 38.683 6.244C38.9403 6.58771 39.1235 6.98099 39.2213 7.39903C39.3191 7.81708 39.3292 8.25085 39.251 8.673C39.1753 9.05692 39.02 9.42071 38.795 9.74091C38.5701 10.0611 38.2805 10.3306 37.945 10.532C35.233 12.188 31.493 10.775 29.832 8.472C28.7342 6.93412 28.1488 5.08947 28.159 3.2V2.606C28.1595 2.5122 28.1415 2.41922 28.1061 2.33238C28.0706 2.24554 28.0183 2.16656 27.9523 2.09995C27.8862 2.03335 27.8077 1.98043 27.7212 1.94423C27.6346 1.90803 27.5418 1.88926 27.448 1.889L26.259 1.884C26.1652 1.88347 26.0722 1.90146 25.9854 1.93693C25.8985 1.9724 25.8196 2.02466 25.753 2.09071C25.6863 2.15676 25.6334 2.2353 25.5972 2.32183C25.561 2.40837 25.5423 2.5012 25.542 2.595V3.189V3.238C23.1527 1.22154 20.1475 0.0794414 17.022 2.20016e-07H16.978C16.0424 -0.000245736 15.1183 0.205728 14.2714 0.603262C13.4244 1.0008 12.6756 1.58012 12.078 2.3C11.2856 3.27311 10.7058 4.4014 10.376 5.6122C10.0462 6.823 9.97363 8.08945 10.163 9.33C10.415 10.9153 11.2103 12.3638 12.4127 13.4273C13.6151 14.4909 15.1498 15.1034 16.754 15.16C16.873 15.16 16.994 15.152 17.114 15.144C16.2321 16.2383 15.5426 17.4746 15.075 18.8C14.2302 17.831 13.0363 17.2356 11.754 17.144C11.1629 17.1044 10.57 17.1878 10.0127 17.3888C9.45535 17.5899 8.94575 17.9042 8.516 18.312C7.81633 19.0187 7.40503 19.9608 7.36232 20.9544C7.31961 21.948 7.64856 22.9218 8.285 23.686C8.5411 24.0008 8.85909 24.2597 9.21927 24.4467C9.57945 24.6336 9.97417 24.7447 10.379 24.773C10.7659 24.7981 11.1537 24.7423 11.5179 24.6092C11.882 24.4761 12.2145 24.2686 12.494 24L12.924 23.589C12.9919 23.5244 13.0464 23.447 13.0844 23.3613C13.1223 23.2756 13.143 23.1832 13.1452 23.0895C13.1475 22.9958 13.1312 22.9025 13.0974 22.8151C13.0635 22.7277 13.0128 22.6478 12.948 22.58L12.126 21.719C12.0614 21.6511 11.984 21.5966 11.8983 21.5586C11.8126 21.5207 11.7202 21.5 11.6265 21.4978C11.5328 21.4955 11.4395 21.5118 11.3521 21.5456C11.2647 21.5795 11.1848 21.6302 11.117 21.695L10.685 22.106C10.6655 22.1259 10.6422 22.1415 10.6163 22.1518C10.5905 22.1622 10.5628 22.167 10.535 22.166C10.4896 22.1598 10.4459 22.1443 10.4067 22.1206C10.3675 22.0968 10.3336 22.0653 10.307 22.028C10.0909 21.7766 9.97204 21.456 9.97204 21.1245C9.97204 20.793 10.0909 20.4724 10.307 20.221C10.4772 20.0598 10.6791 19.9358 10.8998 19.8568C11.1205 19.7777 11.3552 19.7455 11.589 19.762C11.8964 19.7885 12.1951 19.8772 12.4671 20.0229C12.7391 20.1685 12.9785 20.3679 13.171 20.609C13.6908 21.2377 14.0136 22.0057 14.099 22.817C13.935 23.592 13.775 24.351 13.561 25.37C13.4033 25.6345 13.215 25.8795 13 26.1C12.504 26.5989 11.9079 26.9869 11.251 27.2386C10.5941 27.4902 9.89133 27.5998 9.189 27.56C8.39809 27.5339 7.62114 27.3443 6.90709 27.0032C6.19304 26.6621 5.55733 26.1768 5.04 25.578C1.974 21.893 1.49 15.015 5.432 11.328L5.867 10.921C6.00514 10.7916 6.08622 10.6125 6.09241 10.4233C6.0986 10.2341 6.02939 10.0502 5.9 9.912L5.088 9.044C5.02399 8.97563 4.94714 8.92054 4.86183 8.88188C4.77653 8.84322 4.68444 8.82174 4.59084 8.81868C4.49723 8.81561 4.40394 8.83102 4.31628 8.86402C4.22863 8.89702 4.14834 8.94696 4.08 9.011L3.646 9.417C2.46427 10.5705 1.53117 11.9537 0.904131 13.4814C0.277095 15.009 -0.030597 16.6489 -3.6438e-07 18.3C-0.0644163 21.5464 1.00614 24.7135 3.027 27.255C4.32173 28.7675 6.11471 29.767 8.082 30.073C6.11404 30.3823 4.3215 31.385 3.028 32.9C1.00735 35.439 -0.0635889 38.6037 -3.6438e-07 41.848C-0.0299586 43.4989 0.277928 45.1385 0.904745 46.6661C1.53156 48.1937 2.46407 49.577 3.645 50.731L4.079 51.137C4.14771 51.201 4.22835 51.2508 4.31632 51.2835C4.40429 51.3163 4.49786 51.3314 4.59167 51.3279C4.68548 51.3245 4.7777 51.3026 4.86303 51.2635C4.94837 51.2244 5.02516 51.1688 5.089 51.1L5.901 50.231C6.03039 50.0928 6.0996 49.9089 6.09341 49.7197C6.08722 49.5305 6.00614 49.3514 5.868 49.222L5.433 48.815C1.49 45.134 1.974 38.256 5.04 34.569C5.55733 33.9711 6.19267 33.4866 6.90613 33.1458C7.6196 32.8051 8.39579 32.6155 9.186 32.589C9.88842 32.5468 10.5918 32.6546 11.2493 32.9051C11.9069 33.1556 12.5037 33.5432 13 34.042C13.2166 34.2648 13.4059 34.5125 13.564 34.78C13.777 35.798 13.938 36.557 14.102 37.333C14.0166 38.1443 13.6938 38.9123 13.174 39.541C12.982 39.7826 12.7426 39.9824 12.4705 40.128C12.1985 40.2737 11.8995 40.3621 11.592 40.388C11.3581 40.4058 11.123 40.3742 10.9021 40.2951C10.6812 40.216 10.4795 40.0913 10.31 39.929C10.0939 39.6776 9.97504 39.357 9.97504 39.0255C9.97504 38.694 10.0939 38.3734 10.31 38.122C10.3366 38.0847 10.3705 38.0532 10.4097 38.0294C10.4489 38.0057 10.4926 37.9902 10.538 37.984C10.5658 37.983 10.5935 37.9878 10.6193 37.9982C10.6452 38.0085 10.6685 38.0241 10.688 38.044L11.12 38.455C11.1878 38.5198 11.2677 38.5705 11.3551 38.6044C11.4425 38.6382 11.5358 38.6545 11.6295 38.6522C11.7232 38.65 11.8156 38.6293 11.9013 38.5914C11.987 38.5534 12.0644 38.4989 12.129 38.431L12.951 37.57C13.0158 37.5022 13.0665 37.4223 13.1004 37.3349C13.1342 37.2475 13.1505 37.1542 13.1482 37.0605C13.146 36.9668 13.1253 36.8744 13.0874 36.7887C13.0494 36.703 12.9949 36.6256 12.927 36.561L12.497 36.15C12.2178 35.8806 11.8856 35.6723 11.5214 35.5383C11.1573 35.4044 10.7692 35.3477 10.382 35.372C9.97722 35.4005 9.58258 35.5117 9.22243 35.6987C8.86228 35.8856 8.54426 36.1444 8.288 36.459C7.65156 37.2232 7.32261 38.197 7.36532 39.1906C7.40803 40.1842 7.81933 41.1263 8.519 41.833C8.94835 42.2405 9.45747 42.5545 10.0143 42.7554C10.571 42.9562 11.1634 43.0395 11.754 43C13.0363 42.9084 14.2302 42.313 15.075 41.344C15.5215 42.6062 16.1688 43.7881 16.992 44.844V44.844C15.3466 44.8389 13.7538 45.423 12.5017 46.4905C11.2497 47.558 10.4211 49.0385 10.166 50.664C9.97666 51.9046 10.0491 53.1712 10.3788 54.3821C10.7084 55.593 11.2879 56.7215 12.08 57.695C12.6778 58.4158 13.427 58.996 14.2744 59.3944C15.1218 59.7927 16.0466 59.9995 16.983 60H17.02C20.1469 59.9223 23.1537 58.7804 25.544 56.763C25.544 56.828 25.544 56.892 25.544 56.956V57.55C25.5443 57.6438 25.563 57.7366 25.5992 57.8232C25.6354 57.9097 25.6883 57.9882 25.755 58.0543C25.8216 58.1203 25.9005 58.1726 25.9874 58.2081C26.0742 58.2435 26.1672 58.2615 26.261 58.261L27.45 58.256C27.5438 58.2557 27.6366 58.237 27.7232 58.2008C27.8097 58.1646 27.8882 58.1117 27.9543 58.045C28.0203 57.9784 28.0726 57.8995 28.1081 57.8126C28.1435 57.7258 28.1615 57.6328 28.161 57.539V56.945C28.1508 55.0563 28.7359 53.2124 29.833 51.675C31.494 49.375 35.233 47.96 37.946 49.615C38.2817 49.8161 38.5715 50.0855 38.7965 50.4058C39.0215 50.726 39.1767 51.0899 39.252 51.474C39.3301 51.896 39.32 52.3296 39.2223 52.7475C39.1245 53.1654 38.9412 53.5585 38.684 53.902C38.3518 54.3754 37.8666 54.7198 37.31 54.877C36.7535 55.0342 36.1598 54.9946 35.629 54.765C35.5558 54.7264 35.492 54.6722 35.442 54.6061C35.3921 54.5401 35.3572 54.464 35.34 54.383C35.3178 54.254 35.3229 54.1219 35.3547 53.995C35.3866 53.8681 35.4446 53.7492 35.525 53.646C35.5857 53.5564 35.6735 53.4887 35.7756 53.4527C35.8776 53.4167 35.9885 53.4143 36.092 53.446L36.608 53.746C36.6895 53.7924 36.7793 53.8224 36.8724 53.8341C36.9654 53.8458 37.0599 53.8391 37.1503 53.8143C37.2408 53.7895 37.3254 53.7471 37.3995 53.6896C37.4736 53.6321 37.5356 53.5605 37.582 53.479L38.171 52.446C38.2175 52.3647 38.2474 52.275 38.2592 52.182C38.271 52.0891 38.2643 51.9947 38.2396 51.9044C38.2149 51.814 38.1727 51.7294 38.1152 51.6554C38.0578 51.5814 37.9864 51.5194 37.905 51.473L37.389 51.173C36.7211 50.8139 35.9445 50.713 35.2069 50.8892C34.4694 51.0655 33.8224 51.5067 33.389 52.129C33.0958 52.5323 32.8908 52.9928 32.7874 53.4806C32.6841 53.9684 32.6846 54.4724 32.789 54.96C32.8865 55.4003 33.077 55.8147 33.3478 56.1753C33.6186 56.536 33.9634 56.8345 34.359 57.051C35.4463 57.5951 36.6921 57.7329 37.872 57.4395C39.0519 57.1462 40.0882 56.441 40.794 55.451C41.2659 54.8152 41.6008 54.0885 41.7776 53.3167C41.9544 52.5449 41.9691 51.7448 41.821 50.967C41.6422 50.041 41.222 49.1786 40.603 48.467C49.549 47.867 58.544 47.477 67.47 47.313C70.85 47.273 74.283 47.254 77.67 47.264C88.27 47.349 98.951 47.752 109.553 48.464C108.973 49.1302 108.572 49.9331 108.388 50.797C108.217 51.5995 108.218 52.4293 108.392 53.2313C108.566 54.0332 108.909 54.7889 109.398 55.448C110.103 56.4389 111.139 57.1449 112.32 57.4384C113.5 57.7318 114.746 57.5934 115.833 57.048C116.228 56.8312 116.573 56.5326 116.844 56.172C117.114 55.8114 117.305 55.3972 117.403 54.957C117.506 54.4688 117.506 53.9644 117.401 53.4766C117.297 52.9887 117.091 52.5282 116.797 52.125C116.363 51.5031 115.716 51.0622 114.979 50.8863C114.241 50.7104 113.465 50.8118 112.797 51.171L112.281 51.471C112.2 51.5173 112.128 51.5792 112.07 51.6532C112.013 51.7272 111.971 51.8118 111.946 51.9022C111.921 51.9925 111.914 52.0869 111.926 52.1799C111.938 52.2728 111.968 52.3626 112.014 52.444L112.604 53.477C112.65 53.5584 112.712 53.6298 112.786 53.6872C112.86 53.7446 112.945 53.7869 113.035 53.8116C113.126 53.8363 113.22 53.843 113.313 53.8312C113.406 53.8194 113.496 53.7895 113.577 53.743L114.094 53.449C114.197 53.4166 114.308 53.4185 114.41 53.4546C114.512 53.4907 114.6 53.5589 114.66 53.649C114.741 53.7522 114.799 53.871 114.831 53.9979C114.863 54.1248 114.868 54.257 114.846 54.386C114.829 54.4669 114.794 54.5431 114.744 54.6089C114.693 54.6748 114.629 54.7288 114.556 54.767C114.025 54.9967 113.43 55.0359 112.874 54.8779C112.317 54.7199 111.832 54.3745 111.5 53.9C111.234 53.5387 111.046 53.1257 110.95 52.6875C110.853 52.2493 110.849 51.7957 110.939 51.356C111.013 50.9959 111.164 50.6561 111.382 50.3599C111.599 50.0637 111.878 49.8181 112.2 49.64C113.573 48.9651 115.14 48.7947 116.627 49.1587C118.113 49.5227 119.424 50.3978 120.33 51.631C121.403 53.1978 121.994 55.0444 122.03 56.943V57.537C122.03 57.6308 122.048 57.7237 122.083 57.8105C122.119 57.8972 122.171 57.9762 122.237 58.0428C122.303 58.1093 122.382 58.1623 122.468 58.1985C122.554 58.2348 122.647 58.2536 122.741 58.254L123.931 58.259C124.12 58.2598 124.302 58.1855 124.436 58.0524C124.571 57.9192 124.647 57.7382 124.648 57.549V56.949V56.928C126.9 58.8352 129.737 59.914 132.687 59.985C132.836 59.985 132.986 59.982 133.136 59.976C134.159 59.9266 135.158 59.6517 136.062 59.1711C136.966 58.6905 137.753 58.0161 138.366 57.196C139.082 56.2702 139.592 55.2012 139.859 54.0615C140.126 52.9218 140.146 51.7379 139.916 50.59C139.64 48.9522 138.783 47.4687 137.502 46.4119C136.221 45.3551 134.601 44.7959 132.941 44.837V44.837C133.814 43.7239 134.491 42.4694 134.941 41.128C134.963 41.156 134.984 41.182 135.006 41.209C135.426 41.7253 135.947 42.1504 136.537 42.4584C137.127 42.7663 137.773 42.9506 138.437 43C139.028 43.0397 139.621 42.9565 140.178 42.7554C140.736 42.5544 141.245 42.24 141.675 41.832C142.374 41.1252 142.785 40.1835 142.827 39.1904C142.87 38.1973 142.541 37.2239 141.905 36.46C141.649 36.145 141.331 35.8859 140.971 35.6986C140.611 35.5113 140.217 35.3998 139.812 35.371C139.425 35.3476 139.037 35.4047 138.673 35.5386C138.309 35.6725 137.977 35.8803 137.697 36.149L137.267 36.56C137.199 36.6246 137.145 36.702 137.107 36.7877C137.069 36.8734 137.048 36.9658 137.046 37.0595C137.044 37.1532 137.06 37.2465 137.094 37.3339C137.127 37.4213 137.178 37.5012 137.243 37.569L138.066 38.43C138.131 38.4979 138.208 38.5524 138.294 38.5904C138.379 38.6283 138.472 38.649 138.566 38.6512C138.659 38.6535 138.752 38.6372 138.84 38.6034C138.927 38.5695 139.007 38.5188 139.075 38.454L139.506 38.043C139.525 38.0231 139.549 38.0075 139.575 37.9972C139.601 37.9868 139.628 37.982 139.656 37.983C139.701 37.9892 139.745 38.0047 139.784 38.0284C139.823 38.0522 139.857 38.0837 139.884 38.121C140.096 38.3742 140.213 38.6941 140.213 39.0245C140.213 39.3549 140.096 39.6748 139.884 39.928C139.714 40.0899 139.511 40.2144 139.29 40.2935C139.069 40.3725 138.833 40.4044 138.599 40.387C138.292 40.3611 137.993 40.2726 137.721 40.1269C137.449 39.9812 137.21 39.7815 137.018 39.54C136.645 39.0915 136.367 38.5713 136.203 38.0115C136.038 37.4517 135.99 36.8641 136.061 36.285V36.276C136.104 36.076 136.147 35.869 136.194 35.65C136.368 35.0517 136.698 34.5105 137.151 34.082C137.741 33.552 138.435 33.1499 139.188 32.901C139.941 32.6522 140.737 32.5619 141.527 32.636C142.225 32.6772 142.906 32.8669 143.525 33.1923C144.143 33.5177 144.686 33.9713 145.115 34.523C148.045 38.386 148.621 45.209 144.76 48.818L144.325 49.225C144.187 49.3544 144.106 49.5335 144.1 49.7227C144.093 49.9119 144.163 50.0958 144.292 50.234L145.104 51.103C145.168 51.1715 145.245 51.2268 145.33 51.2656C145.415 51.3044 145.507 51.3261 145.601 51.3293C145.694 51.3326 145.788 51.3174 145.875 51.2845C145.963 51.2517 146.044 51.2019 146.112 51.138L146.547 50.732C151.498 46.102 150.882 37.798 147.201 32.942C146.596 32.152 145.839 31.4913 144.974 30.9989C144.11 30.5064 143.155 30.1923 142.167 30.075M133.02 2.633C133.662 2.66827 134.289 2.84494 134.855 3.15039C135.421 3.45584 135.913 3.88253 136.295 4.4C136.78 5.02502 137.126 5.74708 137.308 6.51727C137.49 7.28746 137.504 8.08778 137.35 8.864C136.941 10.825 135.214 12.736 133.038 12.542C132.808 12.5229 132.586 12.4554 132.384 12.3441C132.182 12.2328 132.006 12.0801 131.868 11.896C131.703 11.6706 131.588 11.4129 131.531 11.1399C131.473 10.8669 131.473 10.5848 131.532 10.312C131.591 9.98692 131.76 9.69205 132.011 9.47697C132.262 9.26189 132.579 9.13972 132.909 9.131C132.948 9.131 132.955 9.144 132.963 9.154C133.005 9.22944 133.016 9.31862 132.993 9.402L132.887 9.987C132.87 10.0793 132.872 10.174 132.891 10.2656C132.911 10.3573 132.949 10.4442 133.002 10.5213C133.056 10.5984 133.124 10.6642 133.203 10.715C133.282 10.7657 133.37 10.8004 133.462 10.817L134.632 11.03C134.818 11.0635 135.01 11.0218 135.166 10.9141C135.321 10.8063 135.428 10.6412 135.462 10.455L135.569 9.87C135.647 9.46614 135.639 9.05033 135.546 8.64971C135.453 8.24909 135.276 7.87267 135.027 7.545C134.795 7.24475 134.501 6.99779 134.165 6.82079C133.83 6.64379 133.46 6.54088 133.081 6.519C132.11 6.48116 131.158 6.79539 130.401 7.40381C129.643 8.01223 129.131 8.87387 128.959 9.83C128.818 10.5806 128.86 11.354 129.081 12.085V12.085C127.083 11.0359 124.84 10.5443 122.587 10.662C123.801 6.144 128.545 2.446 133.023 2.634M12.749 8.9C12.621 8.03611 12.6725 7.1551 12.9003 6.31201C13.1281 5.46892 13.5273 4.68186 14.073 4C14.4233 3.56163 14.869 3.20907 15.3763 2.96922C15.8836 2.72936 16.4389 2.60855 17 2.616C19.3687 2.69383 21.654 3.50966 23.5365 4.9495C25.419 6.38934 26.8047 8.38128 27.5 10.647C25.2667 10.5043 23.0359 10.9618 21.039 11.972H21.032C21.2304 11.2699 21.2646 10.5315 21.132 9.814C20.9575 8.85881 20.4448 7.99841 19.6879 7.39022C18.931 6.78203 17.9804 6.46672 17.01 6.502C16.6312 6.52389 16.2616 6.6267 15.9259 6.80351C15.5902 6.98032 15.2963 7.22703 15.064 7.527C14.8152 7.85481 14.6384 8.23143 14.5452 8.63225C14.452 9.03307 14.4444 9.44905 14.523 9.853L14.629 10.439C14.6631 10.6252 14.7696 10.7903 14.9252 10.8981C15.0807 11.0058 15.2727 11.0475 15.459 11.014L16.629 10.801C16.7213 10.7844 16.8094 10.7497 16.8883 10.699C16.9672 10.6482 17.0353 10.5824 17.0887 10.5053C17.1421 10.4282 17.1798 10.3413 17.1996 10.2496C17.2194 10.158 17.2209 10.0633 17.204 9.971L17.098 9.386C17.075 9.30228 17.0857 9.21285 17.128 9.137C17.136 9.127 17.144 9.116 17.182 9.114C17.5121 9.12505 17.8286 9.24873 18.0787 9.46448C18.3288 9.68022 18.4976 9.97506 18.557 10.3C18.6154 10.5734 18.6154 10.8561 18.5572 11.1295C18.4989 11.403 18.3837 11.6611 18.219 11.887C18.0808 12.071 17.9051 12.2236 17.7036 12.3348C17.5021 12.4459 17.2794 12.5132 17.05 12.532C16.013 12.5606 15.0018 12.2068 14.2088 11.5379C13.4159 10.8691 12.8966 9.93194 12.75 8.905M17.006 57.383H16.982C16.4238 57.3861 15.8722 57.2628 15.3684 57.0224C14.8646 56.782 14.4218 56.4308 14.073 55.995C13.5274 55.3122 13.1283 54.5242 12.9007 53.6803C12.673 52.8364 12.6217 51.9546 12.75 51.09C12.8969 50.0636 13.4164 49.1272 14.2094 48.4592C15.0025 47.7912 16.0136 47.4384 17.05 47.468C17.2797 47.4873 17.5027 47.555 17.7044 47.6667C17.906 47.7784 18.0818 47.9315 18.22 48.116C18.3847 48.3419 18.4999 48.6 18.5582 48.8735C18.6164 49.1469 18.6164 49.4296 18.558 49.703C18.4977 50.0273 18.3284 50.3212 18.0781 50.536C17.8278 50.7508 17.5117 50.8736 17.182 50.884C17.142 50.884 17.135 50.87 17.127 50.86C17.1056 50.8226 17.0918 50.7814 17.0865 50.7386C17.0812 50.6959 17.0844 50.6525 17.096 50.611L17.202 50.025C17.2358 49.8387 17.1942 49.6466 17.0864 49.4909C16.9786 49.3353 16.8133 49.2288 16.627 49.195L15.457 48.983C15.2707 48.9492 15.0786 48.9908 14.9229 49.0986C14.7673 49.2064 14.6608 49.3717 14.627 49.558L14.521 50.143C14.4424 50.5469 14.45 50.9629 14.5432 51.3637C14.6364 51.7646 14.8132 52.1412 15.062 52.469C15.2941 52.7688 15.5877 53.0154 15.923 53.1924C16.2583 53.3693 16.6275 53.4725 17.006 53.495C17.9769 53.5333 18.9289 53.2194 19.6866 52.6112C20.4443 52.0029 20.9566 51.1412 21.129 50.185C21.2523 49.5284 21.2366 48.8532 21.083 48.203V48.203C22.8321 49.0796 24.7625 49.5335 26.719 49.528C26.964 49.528 27.213 49.522 27.462 49.507C26.7428 51.7374 25.3523 53.6912 23.4805 55.1013C21.6088 56.5114 19.3472 57.309 17.005 57.385M137.35 51.13C137.504 51.9064 137.49 52.7068 137.308 53.4772C137.126 54.2475 136.78 54.9697 136.295 55.595C135.913 56.1131 135.421 56.5404 134.855 56.8466C134.289 57.1527 133.662 57.3301 133.019 57.366C128.586 57.56 123.896 53.941 122.625 49.488C124.847 49.598 127.058 49.1148 129.031 48.088V48.088C128.852 48.7695 128.826 49.4824 128.956 50.175C129.128 51.1315 129.64 51.9934 130.398 52.6015C131.156 53.2096 132.109 53.5227 133.08 53.483C133.459 53.4606 133.828 53.3574 134.164 53.1802C134.499 53.0031 134.793 52.7561 135.025 52.456C135.273 52.1283 135.45 51.752 135.543 51.3516C135.636 50.9512 135.644 50.5356 135.566 50.132L135.459 49.547C135.442 49.4547 135.408 49.3666 135.357 49.2877C135.306 49.2088 135.24 49.1407 135.163 49.0873C135.086 49.0339 134.999 48.9962 134.908 48.9764C134.816 48.9566 134.721 48.9551 134.629 48.972L133.459 49.184C133.273 49.2178 133.107 49.3243 133 49.4799C132.892 49.6356 132.85 49.8277 132.884 50.014L132.99 50.599C133.013 50.6827 133.002 50.7722 132.96 50.848C132.952 50.858 132.943 50.869 132.903 50.872C132.574 50.8621 132.258 50.7398 132.008 50.5255C131.758 50.3112 131.588 50.0178 131.528 49.694C131.469 49.4212 131.469 49.1391 131.527 48.8661C131.584 48.5931 131.699 48.3354 131.864 48.11C132.002 47.9253 132.178 47.7721 132.38 47.6604C132.582 47.5487 132.805 47.4811 133.035 47.462C135.216 47.262 136.935 49.174 137.346 51.134M132.784 39.1C132.302 41.4846 130.944 43.6017 128.977 45.033C127.01 46.4642 124.577 47.1055 122.16 46.83C107.455 45.5 92.493 44.765 77.676 44.646C74.276 44.639 70.827 44.655 67.425 44.698C54.225 44.936 40.89 45.662 27.774 46.856C25.3553 47.1297 22.9221 46.4852 20.9561 45.0501C18.99 43.615 17.6345 41.494 17.158 39.107C17.004 38.377 16.875 37.78 16.758 37.218C16.8235 36.0405 16.5739 34.8669 16.035 33.818C15.671 32.3965 14.8306 31.1428 13.654 30.266C13.624 30.2437 13.5996 30.2146 13.5829 30.1812C13.5661 30.1478 13.5573 30.1109 13.5573 30.0735C13.5573 30.0361 13.5661 29.9992 13.5829 29.9658C13.5996 29.9324 13.624 29.9033 13.654 29.881C14.8313 29.0034 15.6721 27.7486 16.036 26.326C16.5741 25.2768 16.8237 24.1034 16.759 22.926C16.88 22.362 17.009 21.765 17.159 21.033C17.6382 18.646 18.9961 16.5258 20.9639 15.0921C22.9317 13.6584 25.3659 13.0156 27.785 13.291C40.885 14.483 54.225 15.209 67.434 15.449C70.834 15.49 74.273 15.507 77.685 15.499C92.497 15.38 107.462 14.645 122.171 13.313C124.588 13.0402 127.019 13.6838 128.985 15.1167C130.95 16.5496 132.306 18.6675 132.786 21.052C133.098 22.506 133.295 23.431 133.545 24.613C133.55 24.639 133.554 24.665 133.562 24.691C133.646 25.091 133.738 25.526 133.842 26.018C133.971 26.7937 134.255 27.5355 134.676 28.1993C135.098 28.8631 135.649 29.4353 136.296 29.882C136.326 29.9039 136.35 29.9326 136.367 29.9656C136.383 29.9986 136.392 30.035 136.392 30.072C136.392 30.109 136.383 30.1454 136.367 30.1784C136.35 30.2114 136.326 30.2401 136.296 30.262C135.649 30.7085 135.098 31.2806 134.676 31.9445C134.255 32.6083 133.971 33.3502 133.842 34.126C133.742 34.619 133.642 35.052 133.562 35.454C133.555 35.478 133.549 35.5024 133.545 35.527C133.295 36.71 133.098 37.638 132.786 39.096" fill="#D2CCC0"/><path id="translate_2" style=" transform-origin: center; transform-box: fill-box; animation: translateY 2s linear infinite alternate;" d="M44.754 49.857L43.449 49.95L43.635 52.56L44.94 52.467C64.9356 51.0455 85.0066 51.0395 105.003 52.449L106.308 52.541L106.492 49.93L105.187 49.838C85.0674 48.42 64.8727 48.4263 44.754 49.857" fill="white"/><path id="translate_1" style=" transform-origin: center; transform-box: fill-box; animation: translateYR 2s linear infinite alternate;" d="M105.191 10.31L105.007 7.7C85.0105 9.10863 64.9395 9.10228 44.944 7.681L44.758 10.291C54.827 11.01 64.967 11.369 75.107 11.369C85.158 11.369 95.207 11.016 105.191 10.31Z" fill="white"/></g></g><style> @keyframes translateY { 0%, 100% { transform: translateY(0px); } 50% { transform: translateY(4px); } }@keyframes translateYR { 0%, 100% { transform: translateY(0px); } 50% { transform: translateY(-4px); } }</style></svg>