<svg width="24" height="24" viewBox="0 0 24 24" fill="none" xmlns="http://www.w3.org/2000/svg"><g id="chech_star"><g id="verify/bulk"><g id="vuesax/bulk/verify"><g id="verify"><path id="rotate" style="transform-origin: center; transform-box: fill-box; animation: spin 3s linear infinite;" opacity="0.4" d="M10.748 2.431C11.1062 2.14398 11.5515 1.98758 12.0105 1.98758C12.4695 1.98758 12.9148 2.14398 13.273 2.431L14.856 3.794C15.2178 4.07786 15.6587 4.24243 16.118 4.265H17.818C18.3304 4.26684 18.8212 4.4712 19.1835 4.83349C19.5458 5.19579 19.7502 5.68664 19.752 6.199V7.899C19.7763 8.35792 19.9407 8.79836 20.223 9.161L21.586 10.747C21.873 11.1052 22.0294 11.5505 22.0294 12.0095C22.0294 12.4685 21.873 12.9138 21.586 13.272L20.226 14.855C19.9422 15.2168 19.7776 15.6577 19.755 16.117V17.817C19.7532 18.3294 19.5488 18.8202 19.1865 19.1825C18.8242 19.5448 18.3334 19.7492 17.821 19.751H16.121C15.6621 19.7752 15.2216 19.9396 14.859 20.222L13.273 21.588C12.9148 21.875 12.4695 22.0314 12.0105 22.0314C11.5515 22.0314 11.1062 21.875 10.748 21.588L9.16501 20.225C8.80324 19.9411 8.36229 19.7766 7.90301 19.754H6.16901C5.65665 19.7522 5.1658 19.5478 4.8035 19.1855C4.4412 18.8232 4.23685 18.3324 4.23501 17.82V16.108C4.20961 15.654 4.04907 15.218 3.77401 14.856L2.42201 13.262C2.14089 12.906 1.98798 12.4656 1.98798 12.012C1.98798 11.5584 2.14089 11.118 2.42201 10.762L3.77401 9.164C4.04907 8.80197 4.20961 8.36596 4.23501 7.912V6.188C4.23712 5.67581 4.44158 5.18522 4.80385 4.82314C5.16612 4.46106 5.65682 4.25684 6.16901 4.255H7.90201C8.36084 4.23204 8.80162 4.06906 9.16501 3.788L10.748 2.431Z" fill="#742C2B"/><path id="Vector" d="M10.802 15.14C10.7045 15.14 10.6079 15.1207 10.5178 15.0833C10.4277 15.0459 10.3459 14.9911 10.277 14.922L7.87701 12.522C7.7379 12.3824 7.65997 12.1932 7.66034 11.9961C7.66053 11.8985 7.67993 11.8019 7.71745 11.7118C7.75497 11.6217 7.80987 11.5399 7.87901 11.471C7.94815 11.4021 8.03018 11.3475 8.12042 11.3104C8.21065 11.2732 8.30733 11.2542 8.40492 11.2543C8.60202 11.2547 8.7909 11.3334 8.93001 11.473L10.802 13.347L15.065 9.08801C15.2042 8.94877 15.3931 8.87054 15.59 8.87054C15.7869 8.87054 15.9758 8.94877 16.115 9.08801C16.2542 9.22725 16.3325 9.41609 16.3325 9.61301C16.3325 9.80992 16.2542 9.99877 16.115 10.138L11.327 14.922C11.2581 14.9911 11.1763 15.0459 11.0862 15.0833C10.9961 15.1207 10.8996 15.14 10.802 15.14V15.14Z" fill="#742C2B"/></g></g></g></g><style> @keyframes spin { 0% { transform: rotate(0deg); } 100% { transform: rotate(360deg); } }</style></svg>