<svg width="24" height="24" viewBox="0 0 24 24" fill="none" xmlns="http://www.w3.org/2000/svg"><g id="left_arrow"><g id="logout/bulk"><g id="vuesax/bulk/logout"><g id="logout"><path id="Vector" opacity="0.4" d="M10.76 22C10.5319 22 10.3132 21.9094 10.1519 21.7481C9.9906 21.5868 9.9 21.3681 9.9 21.14L9.9 2.85C9.9 2.62191 9.9906 2.40317 10.1519 2.24188C10.3132 2.0806 10.5319 1.99 10.76 1.99C12.0897 1.92802 13.4176 2.14425 14.659 2.62487C15.9003 3.10549 17.0276 3.83991 17.9688 4.78115C18.9101 5.72238 19.6445 6.84972 20.1251 8.09104C20.6057 9.33236 20.822 10.6603 20.76 11.99C20.8212 13.3199 20.6046 14.6481 20.1239 15.8896C19.6431 17.1311 18.9088 18.2588 17.9679 19.2007C17.027 20.1426 15.9 20.878 14.659 21.36C13.4179 21.8419 12.09 22.0599 10.76 22V22Z" fill="black"/><path id="arrow" style="transform-origin: center; transform-box: fill-box; animation: translateX 2s linear infinite alternate;" d="M3.46 12.46L6.3 15.31C6.44217 15.4425 6.63022 15.5146 6.82452 15.5112C7.01882 15.5077 7.2042 15.429 7.34162 15.2916C7.47903 15.1542 7.55774 14.9688 7.56117 14.7745C7.5646 14.5802 7.49247 14.3922 7.35999 14.25L5.8 12.69L15.37 12.69C15.5689 12.69 15.7597 12.611 15.9003 12.4703C16.041 12.3297 16.12 12.1389 16.12 11.94C16.12 11.7411 16.041 11.5503 15.9003 11.4097C15.7597 11.269 15.5689 11.19 15.37 11.19H5.8L7.35999 9.628C7.49948 9.48686 7.5777 9.29643 7.5777 9.098C7.5777 8.89957 7.49948 8.70914 7.35999 8.568C7.2905 8.49822 7.2079 8.44284 7.11695 8.40506C7.026 8.36728 6.92848 8.34783 6.83 8.34783C6.73151 8.34783 6.63399 8.36728 6.54304 8.40506C6.45209 8.44284 6.36949 8.49822 6.3 8.568L3.46 11.418C3.39076 11.486 3.33575 11.567 3.29821 11.6565C3.26066 11.7459 3.24133 11.842 3.24133 11.939C3.24133 12.036 3.26066 12.1321 3.29821 12.2215C3.33575 12.311 3.39076 12.392 3.46 12.46V12.46Z" fill="black"/></g></g></g></g><style> @keyframes translateX { 0%, 100% { transform: translateX(2px); } 50% { transform: translateX(-2px); } }</style></svg>