<svg xmlns="http://www.w3.org/2000/svg" width="20" height="20" viewBox="0 0 20 20">
  <g id="linked" transform="translate(-10 -10)">
    <path id="Path_1" data-name="Path 1" d="M51.438,49.2V41.755c0-3.659-.788-6.455-5.057-6.455a4.413,4.413,0,0,0-3.99,2.186h-.051V35.63H38.3V49.2h4.219V42.466c0-1.779.33-3.482,2.516-3.482,2.16,0,2.186,2.008,2.186,3.583v6.607h4.219Z" transform="translate(-21.438 -19.201)"/>
    <path id="Path_2" data-name="Path 2" d="M11.3,36.6h4.219V50.17H11.3Z" transform="translate(-0.97 -20.17)"/>
    <path id="Path_3" data-name="Path 3" d="M12.44,10a2.452,2.452,0,1,0,2.44,2.44A2.44,2.44,0,0,0,12.44,10Z"/>
  </g>
</svg>
