<svg xmlns="http://www.w3.org/2000/svg" width="50" height="50" viewBox="0 0 50 50">
  <g id="right_gray_arrow" transform="translate(-746 -668)">
    <g id="Path_11" data-name="Path 11" transform="translate(746 668)" fill="rgba(210,204,192,0.06)">
      <path d="M 25 49.5 C 20.01944923400879 49.5 16.10441017150879 49.11985015869141 13.0311803817749 48.33781814575195 C 9.83705997467041 47.52502822875977 7.398849964141846 46.24441146850586 5.57721996307373 44.42277908325195 C 3.755589962005615 42.60115051269531 2.474970102310181 40.16294097900391 1.662179946899414 36.96881866455078 C 0.8801500201225281 33.89559173583984 0.5 29.98055076599121 0.5 25 C 0.5 20.01944923400879 0.8801500201225281 16.10441017150879 1.662179946899414 13.0311803817749 C 2.474970102310181 9.83705997467041 3.755589962005615 7.398849964141846 5.57721996307373 5.57721996307373 C 7.398849964141846 3.755589962005615 9.83705997467041 2.474970102310181 13.0311803817749 1.662179946899414 C 16.10441017150879 0.8801500201225281 20.01944923400879 0.5 25 0.5 C 29.98055076599121 0.5 33.89559173583984 0.8801500201225281 36.96881866455078 1.662179946899414 C 40.16294097900391 2.474970102310181 42.60115051269531 3.755589962005615 44.42277908325195 5.57721996307373 C 46.24441146850586 7.398849964141846 47.52502822875977 9.83705997467041 48.33781814575195 13.0311803817749 C 49.11985015869141 16.10441017150879 49.5 20.01944923400879 49.5 25 C 49.5 29.98055076599121 49.11985015869141 33.89559173583984 48.33781814575195 36.96881866455078 C 47.52502822875977 40.16294097900391 46.24441146850586 42.60115051269531 44.42277908325195 44.42277908325195 C 42.60115051269531 46.24441146850586 40.16294097900391 47.52502822875977 36.96881866455078 48.33781814575195 C 33.89559173583984 49.11985015869141 29.98055076599121 49.5 25 49.5 Z" stroke="none"/>
      <path d="M 25 1 C 20.06158065795898 1 16.1868782043457 1.375099182128906 13.15447998046875 2.146739959716797 C 10.04993057250977 2.936740875244141 7.687038421630859 4.17449951171875 5.930770874023438 5.930770874023438 C 4.17449951171875 7.687038421630859 2.936740875244141 10.04993057250977 2.146739959716797 13.15447998046875 C 1.375099182128906 16.1868782043457 1 20.06158065795898 1 25 C 1 29.93841934204102 1.375099182128906 33.81311798095703 2.146739959716797 36.84552001953125 C 2.936740875244141 39.95006942749023 4.17449951171875 42.31296157836914 5.930770874023438 44.06922912597656 C 7.687038421630859 45.82550048828125 10.04993057250977 47.06325912475586 13.15447998046875 47.8532600402832 C 16.1868782043457 48.62490081787109 20.06158065795898 49 25 49 C 29.93841934204102 49 33.81311798095703 48.62490081787109 36.84552001953125 47.8532600402832 C 39.95006942749023 47.06325912475586 42.31296157836914 45.82550048828125 44.06922912597656 44.06922912597656 C 45.82550048828125 42.31296157836914 47.06325912475586 39.95006942749023 47.8532600402832 36.84552001953125 C 48.62490081787109 33.81311798095703 49 29.93841934204102 49 25 C 49 20.06158065795898 48.62490081787109 16.1868782043457 47.8532600402832 13.15447998046875 C 47.06325912475586 10.04993057250977 45.82550048828125 7.687038421630859 44.06922912597656 5.930770874023438 C 42.31296157836914 4.17449951171875 39.95006942749023 2.936740875244141 36.84552001953125 2.146739959716797 C 33.81311798095703 1.375099182128906 29.93841934204102 1 25 1 M 25 0 C 44.40356063842773 0 50 5.596439361572266 50 25 C 50 44.40356063842773 44.40356063842773 50 25 50 C 5.596439361572266 50 0 44.40356063842773 0 25 C 0 5.596439361572266 5.596439361572266 0 25 0 Z" stroke="none" fill="#d2ccc0"/>
    </g>
    <g id="Group_7" data-name="Group 7" transform="translate(108 309)">
      <g id="arrow-right_twotone" data-name="arrow-right/twotone" transform="translate(651 372)">
        <g id="vuesax_twotone_arrow-right" data-name="vuesax/twotone/arrow-right">
          <g id="arrow-right">
            <path id="Vector" d="M0,15.84,6.52,9.32a1.986,1.986,0,0,0,0-2.8L0,0" transform="translate(8.91 4.08)" fill="none" stroke="#d2ccc0" stroke-linecap="round" stroke-linejoin="round" stroke-width="1.5"/>
            <path id="Vector-2" data-name="Vector" d="M0,0H24V24H0Z" transform="translate(24 24) rotate(180)" fill="none" opacity="0"/>
          </g>
        </g>
      </g>
    </g>
  </g>
</svg>
