<svg xmlns="http://www.w3.org/2000/svg" width="23.06" height="18" viewBox="0 0 23.06 18">
  <path id="twitter" d="M20.69,52.568c.015.2.015.394.015.591A13.085,13.085,0,0,1,7.258,66.082,13.752,13.752,0,0,1,0,64.043a10.168,10.168,0,0,0,1.141.056,9.712,9.712,0,0,0,5.868-1.941,4.715,4.715,0,0,1-4.419-3.15,6.2,6.2,0,0,0,.893.07,5.189,5.189,0,0,0,1.244-.155,4.592,4.592,0,0,1-3.79-4.458V54.41a4.907,4.907,0,0,0,2.136.577A4.5,4.5,0,0,1,.966,51.2a4.375,4.375,0,0,1,.644-2.292,13.621,13.621,0,0,0,9.745,4.753,4.936,4.936,0,0,1-.117-1.041,4.635,4.635,0,0,1,4.726-4.542,4.806,4.806,0,0,1,3.453,1.434,9.538,9.538,0,0,0,3-1.1,4.567,4.567,0,0,1-2.078,2.5,9.779,9.779,0,0,0,2.722-.7A9.953,9.953,0,0,1,20.69,52.568Z" transform="translate(0 -48.082)"/>
</svg>
