<svg id="whatsapp" xmlns="http://www.w3.org/2000/svg" width="29.5" height="29.5" viewBox="0 0 29.5 29.5">
  <path id="BG_164" data-name="BG 164" d="M0,0H29.5V29.5H0Z" fill="none" opacity="0.58"/>
  <path id="Vector" d="M24.566,11.567A12.3,12.3,0,1,0,1.642,18.438L.548,22.507a1.225,1.225,0,0,0,1.512,1.5L6.067,22.9a12.235,12.235,0,0,0,6.22,1.684A12.481,12.481,0,0,0,24.566,11.567Zm-6.269,5.3a2.933,2.933,0,0,1-.418.627,2.8,2.8,0,0,1-1.008.725,3.008,3.008,0,0,1-1.2.234,5.006,5.006,0,0,1-2-.455,11.258,11.258,0,0,1-2.114-1.217,17.761,17.761,0,0,1-2.016-1.721,17.579,17.579,0,0,1-1.721-2.016,10.813,10.813,0,0,1-1.2-2.1,5.2,5.2,0,0,1-.442-2.016,3.211,3.211,0,0,1,.221-1.192A2.745,2.745,0,0,1,7.1,6.7a1.776,1.776,0,0,1,1.278-.578,1.2,1.2,0,0,1,.5.111,1.018,1.018,0,0,1,.418.344l1.426,2.016a1.984,1.984,0,0,1,.246.43.9.9,0,0,1,.086.381.881.881,0,0,1-.135.443,2.163,2.163,0,0,1-.344.442l-.467.492a.316.316,0,0,0-.1.246.617.617,0,0,0,.025.147.848.848,0,0,1,.049.123,4.927,4.927,0,0,0,.578.787c.283.32.578.651.9.971s.651.627.983.91a4.719,4.719,0,0,0,.8.565c.037.012.074.037.111.049a.4.4,0,0,0,.418-.086l.467-.467a1.975,1.975,0,0,1,.443-.344.847.847,0,0,1,.442-.135.9.9,0,0,1,.381.086,2.237,2.237,0,0,1,.43.246l2.04,1.45a1.038,1.038,0,0,1,.344.393,1.285,1.285,0,0,1,.1.479C18.445,16.41,18.4,16.643,18.3,16.865Z" transform="translate(2.451 2.458)" fill="#fff"/>
  <path id="Vector-2" data-name="Vector" d="M0,0H29.5V29.5H0Z" fill="none" opacity="0"/>
</svg>
