<svg xmlns="http://www.w3.org/2000/svg" width="24.001" height="24" viewBox="0 0 24.001 24">
  <g id="about_2" transform="translate(0 -0.006)">
    <path id="Path_18" data-name="Path 18" d="M22.629,369.594c-1.574.279-1.714,1.35-3.1,1.35a2.1,2.1,0,0,1-1.462-.563,3.569,3.569,0,0,0-4.607,0,2.179,2.179,0,0,1-2.924,0,3.569,3.569,0,0,0-4.607,0,2.1,2.1,0,0,1-1.462.563c-1.383,0-1.523-1.072-3.1-1.35A1.171,1.171,0,0,0,0,370.749v2.913a1.175,1.175,0,0,0,1.024,1.167,2.22,2.22,0,0,1,1.141.544,3.47,3.47,0,0,0,2.3.843,3.47,3.47,0,0,0,2.3-.843,2.179,2.179,0,0,1,2.924,0,3.569,3.569,0,0,0,4.607,0,2.179,2.179,0,0,1,2.924,0,3.47,3.47,0,0,0,2.3.843c1.975,0,2.26-1.238,3.445-1.387A1.175,1.175,0,0,0,24,373.661v-2.913a1.171,1.171,0,0,0-1.372-1.155Zm-.035,3.872c-1.55.292-1.688,1.344-3.063,1.344a2.1,2.1,0,0,1-1.462-.563,3.569,3.569,0,0,0-4.607,0,2.179,2.179,0,0,1-2.924,0,3.569,3.569,0,0,0-4.607,0,2.1,2.1,0,0,1-1.462.563c-1.376,0-1.511-1.052-3.062-1.344v-2.414c.827.293,1.318,1.3,3.062,1.3a3.47,3.47,0,0,0,2.3-.843,2.179,2.179,0,0,1,2.924,0,3.569,3.569,0,0,0,4.607,0,2.179,2.179,0,0,1,2.924,0,3.47,3.47,0,0,0,2.3.843c1.744,0,2.236-1.006,3.063-1.3Z" transform="translate(0 -352.21)" fill="#742c2b"/>
    <path id="Path_19" data-name="Path 19" d="M47.873,203.8l8.563,4.432a1.81,1.81,0,0,0,1.661,0l6.753-3.495-.317.694a.7.7,0,1,0,1.279.584l1.16-2.539a.7.7,0,0,0-.538-1l-2.774-.388a.7.7,0,1,0-.195,1.393l.588.082-6.6,3.417a.4.4,0,0,1-.369,0l-8.563-4.432a.7.7,0,0,0-.646,1.249Z" transform="translate(-45.267 -192.607)" fill="#742c2b"/>
    <path id="Path_20" data-name="Path 20" d="M180.651,9.029a3.9,3.9,0,0,0,.055-3.825L178.172.519a.98.98,0,0,0-1.723,0L173.915,5.2a3.9,3.9,0,0,0,.055,3.825A3.853,3.853,0,0,0,180.651,9.029Zm-5.5-3.156,2.159-3.991,2.159,3.991a2.5,2.5,0,0,1-.036,2.453,2.447,2.447,0,0,1-4.244,0A2.5,2.5,0,0,1,175.152,5.873Z" transform="translate(-165.31)" fill="#742c2b"/>
  </g>
</svg>
