<svg xmlns="http://www.w3.org/2000/svg" xmlns:xlink="http://www.w3.org/1999/xlink" width="24.12" height="24.12" viewBox="0 0 24.12 24.12">
  <defs>
    <clipPath id="clip-path">
      <path id="path2067" d="M0-682.665H24.12v24.12H0Z" transform="translate(0 682.665)" fill="#742c2b"/>
    </clipPath>
  </defs>
  <g id="about_4" transform="translate(0 682.665)">
    <g id="g2063" transform="translate(0 -682.665)">
      <g id="g2065" clip-path="url(#clip-path)">
        <path id="path2071" d="M2.04-149.333H24.652a.707.707,0,0,1,.707.707v3.863a.707.707,0,0,1-.707.707H2.04a.707.707,0,0,1-.707-.707v-3.863A.707.707,0,0,1,2.04-149.333Zm21.906,1.413H2.747v2.45h21.2Z" transform="translate(-1.286 168.177)" fill="#742c2b"/>
        <g id="g2073" transform="translate(0.047 0)">
          <path id="path2075" d="M-604.074-20h18.844a.707.707,0,0,1,.7.636L-582.643-.52a.706.706,0,0,1-.179.544.707.707,0,0,1-.524.232h-22.612a.707.707,0,0,1-.524-.232.707.707,0,0,1-.179-.544l1.884-18.844A.707.707,0,0,1-604.074-20Zm18.2,1.413h-17.565l-1.743,17.43h21.051Z" transform="translate(606.665 20)" fill="#742c2b"/>
        </g>
        <g id="g2077" transform="translate(1.272 0)">
          <path id="path2079" d="M-303.024-11.991h-1.6a.707.707,0,0,1-.707-.707.707.707,0,0,1,.707-.707h1.6c.485,0,.858-.315,1.476-.871a6.3,6.3,0,0,1,4.648-1.955c1.6,0,1.649-3.031,1.649-3.062a.707.707,0,0,1,.707-.707.707.707,0,0,1,.707.707c0,1.662-.645,4.475-3.062,4.475a4.891,4.891,0,0,0-3.7,1.592A3.59,3.59,0,0,1-303.024-11.991Z" transform="translate(305.333 20)" fill="#742c2b"/>
        </g>
        <g id="g2081" transform="translate(0.895 10.364)">
          <path id="path2083" d="M-8.365-10.107a.707.707,0,0,1-.7-.607c0-.027-.455-2.881-2.822-3.669a11.048,11.048,0,0,1-4.093-2.812,4.646,4.646,0,0,0-3.316-1.392A.707.707,0,0,1-20-19.293.707.707,0,0,1-19.293-20a6.067,6.067,0,0,1,4.329,1.82,9.673,9.673,0,0,0,3.526,2.456c3.2,1.068,3.752,4.658,3.774,4.81a.707.707,0,0,1-.6.8A.713.713,0,0,1-8.365-10.107Z" transform="translate(20 20)" fill="#742c2b"/>
        </g>
        <g id="g2085" transform="translate(6.171 4.491)">
          <path id="path2087" d="M-18.747-9.442a.7.7,0,0,1-.507-.214.707.707,0,0,1,.015-1,4.727,4.727,0,0,0,1.595-3.4,7.706,7.706,0,0,0-2.148-4.736.707.707,0,0,1,0-1,.707.707,0,0,1,1,0,9.074,9.074,0,0,1,2.563,5.746,6.087,6.087,0,0,1-2.024,4.406A.7.7,0,0,1-18.747-9.442Z" transform="translate(20 20)" fill="#742c2b"/>
        </g>
        <g id="g2089" transform="translate(8.27 7.823)">
          <path id="path2091" d="M-11.02-18.937a.7.7,0,0,1-.262-.051,7.168,7.168,0,0,1-3.691-3.691c-.694-1.734-4.117-1-4.152-.987a.707.707,0,0,1-.848-.528.706.706,0,0,1,.527-.848c.189-.044,4.63-1.047,5.785,1.839a5.75,5.75,0,0,0,2.9,2.9.707.707,0,0,1,.394.919A.707.707,0,0,1-11.02-18.937Z" transform="translate(19.992 25.247)" fill="#742c2b"/>
        </g>
        <g id="g2093" transform="translate(10.903 10.23)">
          <path id="path2095" d="M-328.045-16.133a.707.707,0,0,1-.7-.636.707.707,0,0,1,.632-.774c.041,0,4.226-.468,5.023-3.26.889-3.112,4.383-3.226,6.106-2.852a.707.707,0,0,1,.54.841.707.707,0,0,1-.84.541c-.158-.034-3.7-.754-4.448,1.859-1.062,3.716-6.03,4.256-6.241,4.278C-328-16.135-328.022-16.133-328.045-16.133Z" transform="translate(328.751 23.805)" fill="#742c2b"/>
        </g>
        <g id="g2097" transform="translate(13.237 0)">
          <path id="path2099" d="M-99.3-9.17a.706.706,0,0,1-.621-.368.707.707,0,0,1,.282-.959c4.6-2.508,2.521-8.5,2.5-8.564a.707.707,0,0,1,.428-.9.707.707,0,0,1,.9.428c.026.072,2.493,7.2-3.154,10.28A.7.7,0,0,1-99.3-9.17Z" transform="translate(100.004 20.005)" fill="#742c2b"/>
        </g>
        <g id="g2101" transform="translate(16.5 4.711)">
          <path id="path2103" d="M-154.029-70.036a.7.7,0,0,1-.452-.164,12.77,12.77,0,0,0-1.937-1.324,7.445,7.445,0,0,0-2.546-.4.707.707,0,0,1-.706-.707.707.707,0,0,1,.706-.706,8.792,8.792,0,0,1,3.178.546,13.991,13.991,0,0,1,2.209,1.5.707.707,0,0,1,.091,1A.705.705,0,0,1-154.029-70.036Z" transform="translate(159.669 73.333)" fill="#742c2b"/>
        </g>
      </g>
    </g>
  </g>
</svg>
