<svg xmlns="http://www.w3.org/2000/svg" xmlns:xlink="http://www.w3.org/1999/xlink" width="24" height="24" viewBox="0 0 24 24">
  <defs>
    <clipPath id="clip-path">
      <path id="path3453" d="M0-682.665H24v24H0Z" transform="translate(0 682.665)" fill="#742c2b"/>
    </clipPath>
  </defs>
  <g id="about_3" transform="translate(0 682.665)">
    <g id="g3449" transform="translate(0 -682.665)">
      <g id="g3451" clip-path="url(#clip-path)">
        <g id="g3457" transform="translate(0 18.689)">
          <path id="path3459" d="M-19.3-20a.7.7,0,0,1,.1.008,76.943,76.943,0,0,0,11.28.846,73.482,73.482,0,0,0,11.1-.845.7.7,0,0,1,.565.161A.7.7,0,0,1,4-19.3v3.9a.7.7,0,0,1-.7.7H-19.3a.7.7,0,0,1-.7-.7v-3.9a.7.7,0,0,1,.244-.532A.7.7,0,0,1-19.3-20Zm11.383,2.26a78.16,78.16,0,0,1-10.68-.745v2.39H2.594v-2.387A74.947,74.947,0,0,1-7.914-17.741Z" transform="translate(20 20)" fill="#742c2b"/>
        </g>
        <g id="g3461" transform="translate(4.219 19.781)">
          <path id="path3463" d="M-65.49-15.784a.7.7,0,0,1-.351-.094.7.7,0,0,1-.257-.96l1.624-2.813a.7.7,0,0,1,.96-.257.7.7,0,0,1,.257.96l-1.624,2.813A.7.7,0,0,1-65.49-15.784Z" transform="translate(66.192 20.003)" fill="#742c2b"/>
        </g>
        <g id="g3465" transform="translate(10.399 19.781)">
          <path id="path3467" d="M-65.489-15.784a.7.7,0,0,1-.351-.094.7.7,0,0,1-.257-.96l1.624-2.813a.7.7,0,0,1,.96-.257.7.7,0,0,1,.257.96l-1.624,2.813A.7.7,0,0,1-65.489-15.784Z" transform="translate(66.191 20.003)" fill="#742c2b"/>
        </g>
        <g id="g3469" transform="translate(16.594 19.781)">
          <path id="path3471" d="M-65.489-15.784a.7.7,0,0,1-.351-.094.7.7,0,0,1-.257-.96l1.624-2.813a.7.7,0,0,1,.96-.257.7.7,0,0,1,.257.96l-1.624,2.813A.7.7,0,0,1-65.489-15.784Z" transform="translate(66.191 20.003)" fill="#742c2b"/>
        </g>
        <g id="g3473" transform="translate(0 15.303)">
          <path id="path3475" d="M3.3-104.911a.7.7,0,0,1-.7-.7v-2.9A59.094,59.094,0,0,1-8-107.468a58.945,58.945,0,0,1-10.591-1.041v2.318a.7.7,0,0,1-.7.7.7.7,0,0,1-.7-.7v-3.165a.7.7,0,0,1,.255-.542.7.7,0,0,1,.581-.148A58.809,58.809,0,0,0-8-108.874a58.958,58.958,0,0,0,11.167-1.173.7.7,0,0,1,.581.148.7.7,0,0,1,.255.542v3.743A.7.7,0,0,1,3.3-104.911Z" transform="translate(20 110.06)" fill="#742c2b"/>
        </g>
        <g id="g3477" transform="translate(11.271 0)">
          <path id="path3479" d="M-19.3-5.352a.7.7,0,0,1-.7-.7V-19.3a.7.7,0,0,1,.7-.7.7.7,0,0,1,.7.7V-6.055A.7.7,0,0,1-19.3-5.352Z" transform="translate(20 20)" fill="#742c2b"/>
        </g>
        <g id="g3481" transform="translate(7.973 9.248)">
          <path id="path3483" d="M-15.992-14.6a.7.7,0,0,1-.542-.255l-3.305-3.994a.7.7,0,0,1,.093-.99.7.7,0,0,1,.99.093l3.305,3.994a.7.7,0,0,1-.093.99A.7.7,0,0,1-15.992-14.6Z" transform="translate(20 20)" fill="#742c2b"/>
        </g>
        <g id="g3485" transform="translate(11.314 9.248)">
          <path id="path3487" d="M-113.309-14.6a.7.7,0,0,1-.448-.161.7.7,0,0,1-.093-.99l3.305-3.994a.7.7,0,0,1,.99-.093.7.7,0,0,1,.093.99l-3.305,3.994A.7.7,0,0,1-113.309-14.6Z" transform="translate(114.012 20)" fill="#742c2b"/>
        </g>
      </g>
    </g>
  </g>
</svg>
