<svg xmlns="http://www.w3.org/2000/svg" width="22.245" height="24" viewBox="0 0 22.245 24">
  <path id="about_1" d="M40.905,9.93a4.663,4.663,0,0,0-.787-2.592l-4.224-7a.705.705,0,0,0-1.217.016L31.165,6.544,27.424.341a.705.705,0,0,0-1.217.016L19.754,11.726A8.412,8.412,0,0,0,18.66,15.87a8.178,8.178,0,0,0,8.4,8.13,8.622,8.622,0,0,0,5.92-2.253,7.789,7.789,0,0,0,2.477-5.766c0-.188-.008-.384-.022-.583h.005A5.474,5.474,0,0,0,40.905,9.93ZM35.309,2.1l3.6,5.966a3.271,3.271,0,0,1,.584,1.863,4.057,4.057,0,0,1-8.115,0,3.339,3.339,0,0,1,.408-1.614.706.706,0,0,0,.045-.086c.024-.045.049-.091.075-.137Zm-1.267,13.88a6.392,6.392,0,0,1-2.028,4.734,7.217,7.217,0,0,1-4.958,1.874A7.128,7.128,0,0,1,22.1,20.664a6.55,6.55,0,0,1-2.034-4.794,7,7,0,0,1,.91-3.448L26.839,2.1l3.546,5.88a4.6,4.6,0,0,0-.416,1.949A5.478,5.478,0,0,0,34,15.206,7.388,7.388,0,0,1,34.043,15.981Z" transform="translate(-18.66 0)" fill="#742c2b"/>
</svg>
