<svg xmlns="http://www.w3.org/2000/svg" width="50.961" height="60" viewBox="0 0 50.961 60">
  <g id="feature_2" transform="translate(-38.569)">
    <path id="Path_28" data-name="Path 28" d="M87.241,9.308a8.04,8.04,0,0,1-5.165-6.333A3.53,3.53,0,0,0,78.6,0H49.5a3.53,3.53,0,0,0-3.473,2.975,8.04,8.04,0,0,1-5.164,6.333A3.523,3.523,0,0,0,38.569,12.6V26.935c0,14.683,8.3,27.879,22.344,32.544a9.7,9.7,0,0,0,6.094.059c13.9-4.529,22.523-17.553,22.523-32.6V12.6a3.523,3.523,0,0,0-2.289-3.294ZM86.014,26.935c0,13.8-7.888,25.282-20.095,29.26a6.181,6.181,0,0,1-3.9-.053C49.91,52.118,42.085,40.653,42.085,26.935l-.008-14.329A11.556,11.556,0,0,0,49.5,3.516H78.6A11.555,11.555,0,0,0,86.014,12.6Z"/>
    <path id="Path_29" data-name="Path 29" d="M170.092,75.971h-.7V70.39a7.72,7.72,0,1,0-15.441,0v5.58h-.7a4.106,4.106,0,0,0-4.1,4.1V96.266a4.106,4.106,0,0,0,4.1,4.1h16.84a4.106,4.106,0,0,0,4.1-4.1V80.072A4.106,4.106,0,0,0,170.092,75.971Zm-12.625-5.58a4.2,4.2,0,0,1,8.409,0v5.58h-8.409Zm13.211,25.875a.586.586,0,0,1-.586.586h-16.84a.586.586,0,0,1-.586-.586V80.072a.586.586,0,0,1,.586-.586h16.84a.586.586,0,0,1,.586.586Z" transform="translate(-97.623 -55.326)"/>
    <path id="Path_30" data-name="Path 30" d="M229.516,236.827a3.514,3.514,0,0,0-1.758,6.558v1.864a1.758,1.758,0,0,0,3.516,0v-1.864a3.514,3.514,0,0,0-1.758-6.558Z" transform="translate(-165.466 -209.074)"/>
  </g>
</svg>
