<svg id="feature_1" xmlns="http://www.w3.org/2000/svg" width="60" height="60" viewBox="0 0 60 60">
  <path id="Path_21" data-name="Path 21" d="M59.669,111.366a1.758,1.758,0,0,0,0-2.06C56.034,104.282,49,97.468,41.739,93.925A26.758,26.758,0,0,0,30,91a26.764,26.764,0,0,0-11.737,2.925c-7.176,3.5-14.253,10.3-17.93,15.381a1.759,1.759,0,0,0,0,2.06c3.634,5.024,10.671,11.838,17.93,15.381A26.758,26.758,0,0,0,30,129.672c7.842,0,15.167-4.127,21.091-9.213a58.541,58.541,0,0,0,8.576-9.093ZM30,126.156c-9.952,0-19.844-8.137-26.018-15.82C6.93,106.675,17.65,94.516,30,94.516c9.944,0,19.836,8.127,26.018,15.82C53.074,114,42.354,126.156,30,126.156Zm0,0" transform="translate(-0.002 -80.336)"/>
  <path id="Path_22" data-name="Path 22" d="M163.3,151a12.3,12.3,0,1,0,12.3,12.3A12.318,12.318,0,0,0,163.3,151Zm0,21.094a8.789,8.789,0,1,1,8.789-8.789A8.8,8.8,0,0,1,163.3,172.094Zm0,0" transform="translate(-133.305 -133.305)"/>
  <path id="Path_23" data-name="Path 23" d="M216.273,211a5.273,5.273,0,1,0,5.273,5.273A5.279,5.279,0,0,0,216.273,211Zm0,7.031a1.758,1.758,0,1,1,1.758-1.758A1.76,1.76,0,0,1,216.273,218.031Zm0,0" transform="translate(-186.273 -186.273)"/>
  <path id="Path_24" data-name="Path 24" d="M430.789,422a1.758,1.758,0,0,0-1.758,1.758v2.787L425,422.515A1.758,1.758,0,0,0,422.515,425l4.03,4.031h-2.787a1.758,1.758,0,0,0,0,3.516h7.031a1.762,1.762,0,0,0,1.749-1.584c.005-.056.008-.112.008-.168,0,0,0,0,0-.005v-7.031A1.758,1.758,0,0,0,430.789,422Zm0,0" transform="translate(-372.547 -372.547)"/>
  <path id="Path_25" data-name="Path 25" d="M423.758,3.516h2.787l-4.03,4.031A1.758,1.758,0,1,0,425,10.032L429.031,6V8.789a1.758,1.758,0,0,0,3.516,0V1.758s0,0,0-.005A1.761,1.761,0,0,0,430.963.009C430.9,0,430.847,0,430.789,0h-7.031a1.758,1.758,0,0,0,0,3.516Zm0,0" transform="translate(-372.547 0)"/>
  <path id="Path_26" data-name="Path 26" d="M8.789,429.031H6L10.032,425a1.758,1.758,0,0,0-2.486-2.486l-4.031,4.03v-2.787a1.758,1.758,0,0,0-3.516,0v7.031s0,0,0,.005a1.761,1.761,0,0,0,1.757,1.753H8.789a1.758,1.758,0,0,0,0-3.516Zm0,0" transform="translate(0 -372.547)"/>
  <path id="Path_27" data-name="Path 27" d="M1.758,10.547A1.758,1.758,0,0,0,3.516,8.789V6l4.031,4.03a1.758,1.758,0,1,0,2.486-2.486L6,3.516H8.789A1.758,1.758,0,0,0,8.789,0H1.758A1.761,1.761,0,0,0,0,1.753s0,0,0,.005V8.789a1.758,1.758,0,0,0,1.758,1.758Zm0,0"/>
</svg>
