<svg xmlns="http://www.w3.org/2000/svg" width="60.955" height="60" viewBox="0 0 60.955 60">
  <g id="feature_3" transform="translate(0 -4.011)">
    <g id="Group_87" data-name="Group 87" transform="translate(0 4.011)">
      <g id="Group_86" data-name="Group 86" transform="translate(0 0)">
        <path id="Path_31" data-name="Path 31" d="M60.735,51.374l-3.54-10.3A25.775,25.775,0,0,0,34.479,4.014,25.746,25.746,0,0,0,8.318,29.422,18.761,18.761,0,0,0,2.623,52.474L.185,59.57a3.353,3.353,0,0,0,3.158,4.441,3.375,3.375,0,0,0,1.1-.185l7.1-2.439A18.841,18.841,0,0,0,19.558,63.2h.03a18.734,18.734,0,0,0,15.148-7.7,25.828,25.828,0,0,0,10.639-2.6l10.3,3.54a4.011,4.011,0,0,0,1.3.219,3.985,3.985,0,0,0,3.753-5.277Zm-41.148,8.2h-.024a15.174,15.174,0,0,1-7.047-1.749,1.815,1.815,0,0,0-1.438-.112L3.8,60.209l2.5-7.277a1.814,1.814,0,0,0-.112-1.438A15.128,15.128,0,0,1,8.656,33.956,25.846,25.846,0,0,0,30.2,55.217,15.088,15.088,0,0,1,19.588,59.571ZM57.22,52.916a.329.329,0,0,1-.363.084l-11.03-3.79a1.814,1.814,0,0,0-1.438.112A22.161,22.161,0,0,1,34.1,51.877h-.034a22.207,22.207,0,0,1-22.117-21.76A22.119,22.119,0,0,1,34.422,7.642a22.125,22.125,0,0,1,19.2,32.443,1.814,1.814,0,0,0-.112,1.438l3.79,11.03A.329.329,0,0,1,57.22,52.916Z" transform="translate(0 -4.011)"/>
      </g>
    </g>
    <g id="Group_89" data-name="Group 89" transform="translate(21.441 20.143)">
      <g id="Group_88" data-name="Group 88">
        <path id="Path_32" data-name="Path 32" d="M203.523,139.512H181.908a1.814,1.814,0,1,0,0,3.628h21.615a1.814,1.814,0,1,0,0-3.628Z" transform="translate(-180.094 -139.512)"/>
      </g>
    </g>
    <g id="Group_91" data-name="Group 91" transform="translate(21.441 27.604)">
      <g id="Group_90" data-name="Group 90">
        <path id="Path_33" data-name="Path 33" d="M203.523,202.183H181.908a1.814,1.814,0,1,0,0,3.628h21.615a1.814,1.814,0,1,0,0-3.628Z" transform="translate(-180.094 -202.183)"/>
      </g>
    </g>
    <g id="Group_93" data-name="Group 93" transform="translate(21.44 35.065)">
      <g id="Group_92" data-name="Group 92">
        <path id="Path_34" data-name="Path 34" d="M195.2,264.852h-13.3a1.814,1.814,0,0,0,0,3.628H195.2a1.814,1.814,0,0,0,0-3.628Z" transform="translate(-180.093 -264.852)"/>
      </g>
    </g>
  </g>
</svg>
