<svg xmlns="http://www.w3.org/2000/svg" width="140" height="140" viewBox="0 0 140 140">
  <g id="about_carvers" fill="none">
    <path d="M70,0c54.33,0,70,15.67,70,70s-15.67,70-70,70S0,124.33,0,70,15.67,0,70,0Z" stroke="none"/>
    <path d="M 69.99999237060547 0.9999847412109375 C 63.03322601318359 0.9999847412109375 56.97793579101562 1.25347900390625 51.48809814453125 1.774932861328125 C 45.78870391845703 2.316314697265625 40.84963226318359 3.131301879882812 36.38864898681641 4.266464233398438 C 27.37344360351562 6.560501098632812 20.48621368408203 10.18052673339844 15.33335876464844 15.33335876464844 C 10.18052673339844 20.48621368408203 6.560501098632812 27.37344360351562 4.266464233398438 36.38864898681641 C 3.131301879882812 40.84963226318359 2.316314697265625 45.78870391845703 1.774932861328125 51.48809814453125 C 1.25347900390625 56.97793579101562 0.9999847412109375 63.03322601318359 0.9999847412109375 69.99999237060547 C 0.9999847412109375 76.96675109863281 1.25347900390625 83.02204895019531 1.774932861328125 88.51188659667969 C 2.316314697265625 94.21128845214844 3.131301879882812 99.15036010742188 4.266464233398438 103.6113433837891 C 6.560501098632812 112.6265411376953 10.18052673339844 119.5137786865234 15.33335876464844 124.6666107177734 C 20.48621368408203 129.8194427490234 27.37344360351562 133.4394683837891 36.38864898681641 135.7335205078125 C 40.84963226318359 136.8686676025391 45.78870391845703 137.6836395263672 51.48809814453125 138.2250213623047 C 56.97793579101562 138.7464904785156 63.03322601318359 138.9999694824219 69.99999237060547 138.9999694824219 C 76.96675109863281 138.9999694824219 83.02204895019531 138.7464904785156 88.51188659667969 138.2250213623047 C 94.21128845214844 137.6836395263672 99.15036010742188 136.8686676025391 103.6113433837891 135.7335205078125 C 112.6265411376953 133.4394683837891 119.5137786865234 129.8194427490234 124.6666107177734 124.6666107177734 C 129.8194427490234 119.5137786865234 133.4394683837891 112.6265411376953 135.7335205078125 103.6113433837891 C 136.8686676025391 99.15036010742188 137.6836395263672 94.21128845214844 138.2250213623047 88.51188659667969 C 138.7464904785156 83.02204895019531 138.9999694824219 76.96675109863281 138.9999694824219 69.99999237060547 C 138.9999694824219 63.03322601318359 138.7464904785156 56.97793579101562 138.2250213623047 51.48809814453125 C 137.6836395263672 45.78870391845703 136.8686676025391 40.84963226318359 135.7335205078125 36.38864898681641 C 133.4394683837891 27.37344360351562 129.8194427490234 20.48621368408203 124.6666107177734 15.33335876464844 C 119.5137786865234 10.18052673339844 112.6265411376953 6.560501098632812 103.6113433837891 4.266464233398438 C 99.15036010742188 3.131301879882812 94.21128845214844 2.316314697265625 88.51188659667969 1.774932861328125 C 83.02204895019531 1.25347900390625 76.96675109863281 0.9999847412109375 69.99999237060547 0.9999847412109375 M 69.99999237060547 -1.52587890625e-05 C 124.3299560546875 -1.52587890625e-05 139.9999694824219 15.67002868652344 139.9999694824219 69.99999237060547 C 139.9999694824219 124.3299560546875 124.3299560546875 139.9999694824219 69.99999237060547 139.9999694824219 C 15.67002868652344 139.9999694824219 -1.52587890625e-05 124.3299560546875 -1.52587890625e-05 69.99999237060547 C -1.52587890625e-05 15.67002868652344 15.67002868652344 -1.52587890625e-05 69.99999237060547 -1.52587890625e-05 Z" stroke="none" fill="rgba(116,44,43,0.1)"/>
  </g>
</svg>
