<svg width="60" height="60" viewBox="0 0 60 60" fill="none" xmlns="http://www.w3.org/2000/svg"><g id="about_3 1" clip-path="url(#clip0_308_30)"><g id="about_3"><g id="g2759"><path id="path2761" d="M37.458 17.57C37.6889 17.5697 37.9176 17.6151 38.1309 17.7034C38.3442 17.7918 38.538 17.9215 38.701 18.085L43.673 23.057C44.0027 23.3867 44.1879 23.8338 44.188 24.3C44.1879 24.7662 44.0027 25.2134 43.673 25.543L27.728 41.488C27.3983 41.8176 26.9512 42.0028 26.485 42.0028C26.0188 42.0028 25.5717 41.8176 25.242 41.488L16.328 32.57C15.9983 32.2404 15.813 31.7932 15.813 31.327C15.813 30.8608 15.9983 30.4137 16.328 30.084L21.3 25.112C21.6297 24.7824 22.0768 24.5972 22.543 24.5972C23.0092 24.5972 23.4563 24.7824 23.786 25.112L26.486 27.812L36.217 18.082C36.38 17.9193 36.5736 17.7903 36.7865 17.7024C36.9994 17.6146 37.2276 17.5696 37.458 17.57V17.57ZM39.944 24.3L37.458 21.814L27.728 31.544C27.3983 31.8736 26.9512 32.0588 26.485 32.0588C26.0188 32.0588 25.5717 31.8736 25.242 31.544L22.542 28.844L20.056 31.33L26.487 37.759L39.944 24.3Z" fill="#742C2B"/></g><g id="g2763"><g id="g2765"><g id="rotate" style=" transform-origin: center; transform-box: fill-box; animation: spin 3s linear infinite;"><path id="path2773" d="M30 60C29.7302 60.0002 29.464 59.9382 29.222 59.819C27.6013 58.9929 26.0699 58.0024 24.652 56.863C22.9053 57.3604 21.1071 57.655 19.293 57.741C19.0433 57.7491 18.7947 57.7039 18.5638 57.6084C18.3329 57.5128 18.125 57.3692 17.954 57.187C16.7308 55.8424 15.6668 54.3613 14.783 52.773C12.9776 52.5643 11.2022 52.1483 9.492 51.533C9.2581 51.4448 9.04571 51.3078 8.86896 51.131C8.69221 50.9543 8.55514 50.7419 8.46698 50.508C7.85152 48.7975 7.43545 47.0218 7.22699 45.216C5.63877 44.3324 4.15767 43.2687 2.81299 42.046C2.63061 41.8751 2.48676 41.6672 2.39105 41.4363C2.29535 41.2054 2.25 40.9568 2.258 40.707C2.34397 38.8929 2.63857 37.0947 3.13599 35.348C1.99651 33.93 1.00597 32.3987 0.179993 30.778C0.060741 30.5361 -0.00128174 30.2701 -0.00128174 30.0005C-0.00128174 29.7308 0.060741 29.4648 0.179993 29.223C1.00611 27.6027 1.99665 26.0716 3.13599 24.654C2.6384 22.907 2.3438 21.1084 2.258 19.294C2.25 19.0442 2.29535 18.7955 2.39105 18.5646C2.48676 18.3337 2.63061 18.1259 2.81299 17.955C4.15757 16.7319 5.63868 15.6678 7.22699 14.784C7.43545 12.9782 7.85152 11.2024 8.46698 9.49197C8.55508 9.25804 8.69214 9.04559 8.8689 8.86884C9.04565 8.69208 9.25807 8.55508 9.492 8.46698C11.2025 7.85157 12.9782 7.43546 14.784 7.22696C15.6678 5.63863 16.7319 4.15755 17.955 2.81299C18.126 2.63079 18.3339 2.48713 18.5648 2.3916C18.7956 2.29607 19.0443 2.25085 19.294 2.25897C21.1085 2.34476 22.907 2.63936 24.654 3.13696C26.0716 1.9976 27.6027 1.00707 29.223 0.180969C29.4649 0.0617176 29.7308 -0.000305176 30.0005 -0.000305176C30.2701 -0.000305176 30.5362 0.0617176 30.778 0.180969C32.3983 1.00707 33.9293 1.9976 35.347 3.13696C37.094 2.63938 38.8926 2.34478 40.707 2.25897C40.9568 2.25085 41.2053 2.29607 41.4362 2.3916C41.6671 2.48713 41.875 2.63079 42.046 2.81299C43.2692 4.15755 44.3331 5.63864 45.217 7.22696C47.0228 7.43551 48.7986 7.85161 50.509 8.46698C50.7429 8.55514 50.9553 8.69215 51.1321 8.8689C51.3088 9.04565 51.4458 9.25807 51.534 9.49197C52.1494 11.2024 52.5655 12.9782 52.774 14.784C54.3623 15.6678 55.8434 16.7318 57.188 17.955C57.3704 18.1259 57.5142 18.3337 57.6099 18.5646C57.7056 18.7955 57.751 19.0442 57.743 19.294C57.6571 21.1084 57.3625 22.9069 56.865 24.654C58.0044 26.0716 58.9949 27.6026 59.821 29.223C59.9402 29.4648 60.0023 29.7308 60.0023 30.0005C60.0023 30.2701 59.9402 30.5361 59.821 30.778C58.9951 32.3987 58.0045 33.9301 56.865 35.348C57.3625 37.0947 57.6571 38.8929 57.743 40.707C57.751 40.9568 57.7056 41.2054 57.6099 41.4363C57.5142 41.6672 57.3704 41.8751 57.188 42.046C55.8434 43.2691 54.3623 44.3331 52.774 45.217C52.5655 47.0228 52.1494 48.7985 51.534 50.509C51.4458 50.7429 51.3088 50.9553 51.1321 51.132C50.9553 51.3088 50.7429 51.4458 50.509 51.534C48.7989 52.1492 47.0235 52.5653 45.218 52.774C44.3342 54.3623 43.2702 55.8434 42.047 57.188C41.876 57.3702 41.6681 57.5138 41.4373 57.6093C41.2064 57.7049 40.9577 57.7501 40.708 57.742C38.8939 57.656 37.0957 57.3614 35.349 56.864C33.9311 58.0034 32.3997 58.994 30.779 59.82C30.5366 59.939 30.27 60.0006 30 60V60ZM25.052 53.117C25.498 53.118 25.927 53.2885 26.252 53.594C27.3953 54.6174 28.6509 55.5078 29.995 56.248C31.3393 55.5072 32.5956 54.6168 33.74 53.594C33.9799 53.3686 34.2782 53.2151 34.601 53.1509C34.9238 53.0867 35.2581 53.1145 35.566 53.231C37.0001 53.7313 38.4921 54.0472 40.006 54.171C40.9889 53.0122 41.8212 51.7337 42.483 50.366C42.6184 50.066 42.8352 49.8101 43.1089 49.6273C43.3826 49.4445 43.7021 49.3421 44.031 49.332C45.5476 49.2453 47.0469 48.9661 48.493 48.501C48.9579 47.0541 49.2378 45.5542 49.326 44.037C49.3362 43.708 49.4385 43.3885 49.6213 43.1149C49.8041 42.8412 50.06 42.6244 50.36 42.489C51.7264 41.8283 53.0033 40.9966 54.16 40.014C54.0357 38.4993 53.7202 37.0064 53.221 35.571C53.1045 35.2632 53.0768 34.9288 53.1409 34.606C53.2051 34.2832 53.3586 33.9848 53.584 33.745C54.6072 32.6018 55.4972 31.3461 56.237 30.002C55.4962 28.6577 54.6059 27.4014 53.583 26.257C53.3576 26.0171 53.2041 25.7188 53.14 25.396C53.0758 25.0731 53.1035 24.7388 53.22 24.431C53.7205 22.9968 54.0364 21.5049 54.16 19.991C53.0013 19.0078 51.7228 18.1752 50.355 17.513C50.055 17.3776 49.7991 17.1607 49.6163 16.8871C49.4335 16.6134 49.3312 16.2939 49.321 15.965C49.2344 14.4484 48.9552 12.949 48.49 11.503C47.0431 11.0381 45.5432 10.7582 44.026 10.67C43.6981 10.6574 43.3803 10.5534 43.1085 10.3696C42.8367 10.1858 42.6217 9.92958 42.488 9.62997C41.8274 8.2635 40.9958 6.9866 40.013 5.82999C38.4983 5.95423 37.0054 6.26973 35.57 6.76898C35.2622 6.88547 34.9278 6.9132 34.605 6.84903C34.2822 6.78486 33.9839 6.63135 33.744 6.40598C32.6008 5.38257 31.345 4.49222 30.001 3.75198C28.6567 4.49282 27.4004 5.38312 26.256 6.40598C26.0161 6.63135 25.7178 6.78486 25.395 6.84903C25.0722 6.9132 24.7378 6.88547 24.43 6.76898C22.9952 6.26984 21.503 5.95433 19.989 5.82999C19.0065 6.98719 18.1742 8.26397 17.512 9.62997C17.3766 9.92994 17.1598 10.1859 16.8861 10.3687C16.6124 10.5515 16.2929 10.6538 15.964 10.664C14.4475 10.752 12.9483 11.0315 11.502 11.496C11.0375 12.9422 10.7579 14.4415 10.67 15.958C10.6598 16.2869 10.5575 16.6064 10.3747 16.8801C10.1919 17.1537 9.93596 17.3706 9.63599 17.506C8.26956 18.1666 6.99267 18.9983 5.836 19.981C5.96029 21.4957 6.27583 22.9885 6.77502 24.424C6.89152 24.7318 6.91922 25.0662 6.85504 25.389C6.79087 25.7118 6.63736 26.0101 6.41199 26.25C5.38857 27.3932 4.49821 28.6489 3.758 29.993C4.49871 31.3373 5.38902 32.5936 6.41199 33.738C6.63736 33.9778 6.79087 34.2762 6.85504 34.599C6.91922 34.9218 6.89152 35.2561 6.77502 35.564C6.27603 36.9988 5.9605 38.491 5.836 40.005C6.99326 40.9874 8.27003 41.8197 9.63599 42.482C9.93596 42.6173 10.1919 42.8342 10.3747 43.1079C10.5575 43.3815 10.6598 43.701 10.67 44.03C10.7579 45.5464 11.0375 47.0457 11.502 48.492C12.9486 48.9564 14.4482 49.236 15.965 49.324C16.294 49.3342 16.6134 49.4365 16.8871 49.6193C17.1608 49.8021 17.3776 50.058 17.513 50.358C18.1751 51.724 19.0074 53.0008 19.99 54.158C21.504 54.0335 22.9962 53.718 24.431 53.219C24.6308 53.1476 24.8419 53.1131 25.054 53.117H25.052Z" fill="#742C2B"/></g></g></g></g></g><defs><clipPath id="clip0_308_30"><rect width="60" height="60" fill="white"/></clipPath></defs><style> @keyframes spin { 0% { transform: rotate(0deg); } 100% { transform: rotate(360deg); } }</style></svg>