<svg xmlns="http://www.w3.org/2000/svg" width="400" height="400" viewBox="0 0 400 400">
  <g id="about_pattern" fill="none">
    <path d="M200,0C355.228,0,400,44.772,400,200S355.228,400,200,400,0,355.228,0,200,44.772,0,200,0Z" stroke="none"/>
    <path d="M 200.0000152587891 1.000030517578125 C 180.0357666015625 1.000030517578125 162.6774597167969 1.727020263671875 146.9332580566406 3.222503662109375 C 130.552978515625 4.778411865234375 116.3489685058594 7.122955322265625 103.5096130371094 10.39010620117188 C 97.0390625 12.03662109375 90.8712158203125 13.94381713867188 85.1773681640625 16.05865478515625 C 79.43960571289062 18.1898193359375 73.98587036132812 20.60507202148438 68.9676513671875 23.2374267578125 C 63.92575073242188 25.88217163085938 59.15127563476562 28.83636474609375 54.77676391601562 32.01791381835938 C 50.39266967773438 35.2064208984375 46.26095581054688 38.73187255859375 42.49642944335938 42.49642944335938 C 38.73187255859375 46.26095581054688 35.2064208984375 50.39266967773438 32.01791381835938 54.77676391601562 C 28.83636474609375 59.15127563476562 25.88217163085938 63.92575073242188 23.2374267578125 68.9676513671875 C 20.60507202148438 73.98587036132812 18.1898193359375 79.43960571289062 16.05865478515625 85.1773681640625 C 13.94381713867188 90.8712158203125 12.03662109375 97.0390625 10.39010620117188 103.5096130371094 C 7.122955322265625 116.3489685058594 4.778411865234375 130.552978515625 3.222503662109375 146.9332580566406 C 1.727020263671875 162.6774597167969 1.000030517578125 180.0357666015625 1.000030517578125 200.0000152587891 C 1.000030517578125 219.9642639160156 1.727020263671875 237.3225708007812 3.222503662109375 253.0667724609375 C 4.778411865234375 269.4470825195312 7.122955322265625 283.6510620117188 10.39010620117188 296.4904174804688 C 12.03662109375 302.9609069824219 13.94381713867188 309.1287841796875 16.05865478515625 314.8226623535156 C 18.1898193359375 320.5603637695312 20.60507202148438 326.0140991210938 23.2374267578125 331.0323486328125 C 25.88217163085938 336.07421875 28.83636474609375 340.8487243652344 32.01791381835938 345.2232666015625 C 35.2064208984375 349.6072998046875 38.73187255859375 353.739013671875 42.49642944335938 357.5035705566406 C 46.26095581054688 361.2681274414062 50.39266967773438 364.7936096191406 54.77676391601562 367.9821166992188 C 59.15127563476562 371.1636657714844 63.92575073242188 374.1178588867188 68.9676513671875 376.7625732421875 C 73.98587036132812 379.3949279785156 79.43960571289062 381.8102111816406 85.1773681640625 383.9413757324219 C 90.8712158203125 386.0562133789062 97.0390625 387.96337890625 103.5096130371094 389.6099243164062 C 116.3489685058594 392.8770751953125 130.552978515625 395.2216186523438 146.9332580566406 396.7775268554688 C 162.6774597167969 398.2730102539062 180.0357666015625 399 200.0000152587891 399 C 219.9642639160156 399 237.3225708007812 398.2730102539062 253.0667724609375 396.7775268554688 C 269.447021484375 395.2216186523438 283.6510620117188 392.8770751953125 296.4904174804688 389.6099243164062 C 302.9609069824219 387.96337890625 309.1287841796875 386.0562133789062 314.8226623535156 383.9413757324219 C 320.5603637695312 381.8102111816406 326.0140991210938 379.3949279785156 331.0323486328125 376.7625732421875 C 336.07421875 374.1178588867188 340.8487243652344 371.1636657714844 345.2232666015625 367.9821166992188 C 349.6072998046875 364.7936096191406 353.739013671875 361.2681274414062 357.5035705566406 357.5035705566406 C 361.2681274414062 353.739013671875 364.7936096191406 349.6072998046875 367.9821166992188 345.2232666015625 C 371.1636657714844 340.8487243652344 374.1178588867188 336.07421875 376.7625732421875 331.0323486328125 C 379.3949279785156 326.0140991210938 381.8102111816406 320.5603637695312 383.9413757324219 314.8226623535156 C 386.0562133789062 309.1287841796875 387.96337890625 302.9609069824219 389.6099243164062 296.4904174804688 C 392.8770751953125 283.6510620117188 395.2216186523438 269.447021484375 396.7775268554688 253.0667724609375 C 398.2730102539062 237.3225708007812 399 219.9642639160156 399 200.0000152587891 C 399 180.0357666015625 398.2730102539062 162.6774597167969 396.7775268554688 146.9332580566406 C 395.2216186523438 130.552978515625 392.8770751953125 116.3489685058594 389.6099243164062 103.5096130371094 C 387.96337890625 97.0390625 386.0562133789062 90.8712158203125 383.9413757324219 85.1773681640625 C 381.8102111816406 79.43960571289062 379.3949279785156 73.98587036132812 376.7625732421875 68.9676513671875 C 374.1178588867188 63.92575073242188 371.1636657714844 59.15127563476562 367.9821166992188 54.77676391601562 C 364.7936096191406 50.39266967773438 361.2681274414062 46.26095581054688 357.5035705566406 42.49642944335938 C 353.739013671875 38.73187255859375 349.6072998046875 35.2064208984375 345.2232666015625 32.01791381835938 C 340.8487243652344 28.83636474609375 336.07421875 25.88217163085938 331.0323486328125 23.2374267578125 C 326.0140991210938 20.60507202148438 320.5603637695312 18.1898193359375 314.8226623535156 16.05865478515625 C 309.1287841796875 13.94381713867188 302.9609069824219 12.03662109375 296.4904174804688 10.39010620117188 C 283.6510620117188 7.122955322265625 269.4470825195312 4.778411865234375 253.0667724609375 3.222503662109375 C 237.3225708007812 1.727020263671875 219.9642639160156 1.000030517578125 200.0000152587891 1.000030517578125 M 200.0000152587891 3.0517578125e-05 C 355.2284545898438 3.0517578125e-05 400 44.77151489257812 400 200.0000152587891 C 400 355.2284545898438 355.2284545898438 400 200.0000152587891 400 C 44.77151489257812 400 3.0517578125e-05 355.2284545898438 3.0517578125e-05 200.0000152587891 C 3.0517578125e-05 44.77151489257812 44.77151489257812 3.0517578125e-05 200.0000152587891 3.0517578125e-05 Z" stroke="none" fill="rgba(116,44,43,0.1)"/>
  </g>
</svg>
