<svg width="60" height="60" viewBox="0 0 60 60" fill="none" xmlns="http://www.w3.org/2000/svg"><g id="about_2 1" clip-path="url(#clip0_308_8)"><g id="scale" style="animation: niceAnimate 3s linear infinite; transform-origin: center; transform-box: fill-box;"><g id="g2061"><g id="g2063"><g id="g2065"><path id="path2071" d="M1.875 46.875H58.125C58.5913 46.875 59.0384 47.0602 59.3681 47.3899C59.6978 47.7196 59.883 48.1667 59.883 48.633V58.242C59.883 58.7082 59.6978 59.1554 59.3681 59.4851C59.0384 59.8148 58.5913 60 58.125 60H1.875C1.40875 60 0.9616 59.8148 0.631911 59.4851C0.302222 59.1554 0.117004 58.7082 0.117004 58.242V48.633C0.117004 48.1667 0.302222 47.7196 0.631911 47.3899C0.9616 47.0602 1.40875 46.875 1.875 46.875V46.875ZM56.367 50.391H3.633V56.485H56.367V50.391Z" fill="#742C2B"/><g id="g2073"><path id="path2075" d="M6.56203 0H53.437C53.8729 6.64857e-05 54.2932 0.162078 54.6164 0.454592C54.9396 0.747106 55.1426 1.14926 55.186 1.583L59.873 48.458C59.8974 48.7023 59.8703 48.9491 59.7935 49.1823C59.7167 49.4155 59.5918 49.63 59.427 49.812C59.2626 49.9936 59.062 50.1388 58.8381 50.2384C58.6142 50.3379 58.372 50.3896 58.127 50.39H1.87697C1.63197 50.3896 1.38979 50.3379 1.16591 50.2384C0.942041 50.1388 0.741435 49.9936 0.576985 49.812C0.412213 49.63 0.287407 49.4154 0.210591 49.1822C0.133775 48.949 0.106667 48.7023 0.131001 48.458L4.81899 1.583C4.86228 1.15029 5.06445 0.748972 5.38637 0.4566C5.70829 0.164228 6.12716 0.00155082 6.56203 0V0ZM51.846 3.516H8.15297L3.81698 46.875H56.182L51.846 3.516Z" fill="#742C2B"/></g><g id="g2077"><path id="path2079" d="M8.90701 19.922H4.923C4.45675 19.922 4.00959 19.7368 3.6799 19.4071C3.35021 19.0774 3.16501 18.6303 3.16501 18.164C3.16501 17.6977 3.35021 17.2506 3.6799 16.9209C4.00959 16.5912 4.45675 16.406 4.923 16.406H8.90701C10.115 16.406 11.042 15.623 12.578 14.238C14.855 12.185 17.978 9.374 24.141 9.374C28.131 9.374 28.241 1.833 28.241 1.757C28.2413 1.29127 28.4263 0.844674 28.7556 0.515259C29.0848 0.185843 29.5313 0.000529767 29.997 0C30.4633 0 30.9104 0.185217 31.2401 0.514906C31.5698 0.844595 31.755 1.29175 31.755 1.758C31.755 5.893 30.155 12.891 24.138 12.891C19.322 12.891 17.088 14.904 14.929 16.85C13.256 18.36 11.523 19.922 8.90701 19.922Z" fill="#742C2B"/></g><g id="g2081"><path id="path2083" d="M31.17 50.391C30.7471 50.3904 30.3386 50.2374 30.0194 49.9601C29.7002 49.6828 29.4916 49.2996 29.432 48.881C29.427 48.815 28.3 41.716 22.413 39.753C18.282 38.381 14.596 35.19 12.232 32.759C11.1562 31.6628 9.8727 30.7921 8.45652 30.1977C7.04033 29.6032 5.51987 29.2971 3.98399 29.297C3.51791 29.2967 3.07102 29.1114 2.74154 28.7817C2.41207 28.4521 2.22699 28.0051 2.22699 27.539C2.22699 27.0728 2.41221 26.6256 2.7419 26.2959C3.07158 25.9662 3.51874 25.781 3.98499 25.781C5.9906 25.7822 7.97585 26.1832 9.82472 26.9605C11.6736 27.7378 13.349 28.8758 14.753 30.308C16.845 32.459 20.065 35.265 23.525 36.418C31.495 39.075 32.858 48.005 32.912 48.381C32.948 48.6307 32.9299 48.8852 32.8588 49.1273C32.7878 49.3694 32.6655 49.5934 32.5002 49.784C32.335 49.9747 32.1307 50.1276 31.9012 50.2323C31.6717 50.337 31.4223 50.3911 31.17 50.391V50.391Z" fill="#742C2B"/></g><g id="g2085"><path id="path2087" d="M18.468 37.437C18.2325 37.4373 17.9994 37.3902 17.7826 37.2985C17.5658 37.2067 17.3697 37.0722 17.206 36.903C17.0452 36.7373 16.9186 36.5416 16.8334 36.327C16.7482 36.1124 16.7062 35.8832 16.7096 35.6523C16.713 35.4215 16.7619 35.1936 16.8534 34.9816C16.9449 34.7696 17.0773 34.5778 17.243 34.417C18.4476 33.3524 19.4211 32.0522 20.1035 30.5966C20.7858 29.1409 21.1624 27.5609 21.21 25.954C21.252 19.625 15.922 14.228 15.868 14.172C15.5384 13.8423 15.3532 13.3952 15.3532 12.929C15.3532 12.4628 15.5384 12.0157 15.868 11.686C16.1977 11.3564 16.6448 11.1712 17.111 11.1712C17.5772 11.1712 18.0243 11.3564 18.354 11.686C18.617 11.948 24.784 18.194 24.729 25.98C24.6851 28.0545 24.2153 30.0978 23.3488 31.9832C22.4824 33.8685 21.2377 35.5557 19.692 36.94C19.3645 37.259 18.9252 37.4374 18.468 37.437V37.437Z" fill="#742C2B"/></g><g id="g2089"><path id="path2091" d="M42.891 35.157C42.6676 35.1569 42.4463 35.1142 42.239 35.031C38.1324 33.2332 34.8538 29.9546 33.056 25.848C31.331 21.535 22.814 23.372 22.729 23.392C22.2751 23.4969 21.7982 23.4174 21.4028 23.1711C21.0074 22.9248 20.7259 22.5316 20.62 22.078C20.5141 21.6245 20.5927 21.1475 20.8383 20.7519C21.0839 20.3562 21.4766 20.0743 21.93 19.968C22.399 19.858 33.448 17.362 36.32 24.542C37.7563 27.7574 40.3286 30.3297 43.544 31.766C43.9768 31.9392 44.3231 32.2773 44.5067 32.7058C44.6903 33.1343 44.6961 33.6182 44.523 34.051C44.3926 34.3773 44.1674 34.657 43.8765 34.8541C43.5856 35.0512 43.2424 35.1567 42.891 35.157V35.157Z" fill="#742C2B"/></g><g id="g2093"><path id="path2095" d="M28.873 44.531C28.4389 44.5293 28.0208 44.3671 27.6992 44.0756C27.3776 43.784 27.1752 43.3838 27.131 42.952C27.0844 42.4881 27.2239 42.0248 27.5189 41.6638C27.8139 41.3028 28.2402 41.0737 28.704 41.027C28.804 41.016 39.216 39.862 41.204 32.918C43.416 25.176 52.104 24.892 56.393 25.824C56.8485 25.9231 57.2459 26.1991 57.498 26.5912C57.75 26.9833 57.836 27.4595 57.737 27.915C57.6381 28.3702 57.3625 28.7676 56.9708 29.0197C56.5791 29.2719 56.1034 29.3583 55.648 29.26C55.254 29.176 46.441 27.386 44.584 33.884C41.943 43.128 29.584 44.472 29.059 44.525C28.996 44.528 28.936 44.531 28.873 44.531Z" fill="#742C2B"/></g><g id="g2097"><path id="path2099" d="M34.689 26.954C34.3729 26.9544 34.0625 26.8696 33.7906 26.7083C33.5187 26.5471 33.2953 26.3155 33.144 26.038C32.9207 25.6289 32.869 25.1478 33.0002 24.7006C33.1315 24.2533 33.435 23.8765 33.844 23.653C45.283 17.413 40.115 2.5 40.062 2.353C39.9842 2.13541 39.9501 1.90462 39.9616 1.67384C39.9731 1.44305 40.03 1.21679 40.129 1.008C40.228 0.799215 40.3672 0.611994 40.5386 0.457048C40.71 0.302103 40.9103 0.182472 41.128 0.104999C41.5671 -0.0518752 42.0505 -0.0279078 42.4719 0.171631C42.8933 0.371169 43.2181 0.729933 43.375 1.169C43.439 1.347 49.575 19.079 35.53 26.741C35.272 26.8815 34.9828 26.9547 34.689 26.954V26.954Z" fill="#742C2B"/></g><g id="g2101"><path id="path2103" d="M55.077 19.922C54.6662 19.9224 54.2683 19.7783 53.953 19.515C52.4518 18.2715 50.8393 17.1689 49.136 16.221C47.705 15.505 44.491 15.236 42.801 15.235C42.5701 15.2349 42.3416 15.1893 42.1283 15.1008C41.9151 15.0123 41.7213 14.8827 41.5582 14.7194C41.395 14.556 41.2657 14.3622 41.1774 14.1488C41.0892 13.9355 41.0439 13.7069 41.044 13.476C41.044 13.01 41.2291 12.5631 41.5586 12.2336C41.8881 11.9041 42.335 11.719 42.801 11.719C43.332 11.719 48.068 11.757 50.707 13.076C52.6554 14.1433 54.4972 15.3946 56.207 16.813C56.5649 17.1115 56.7896 17.5398 56.8318 18.0039C56.874 18.468 56.7302 18.9299 56.432 19.288C56.2669 19.487 56.0597 19.6471 55.8255 19.7567C55.5912 19.8663 55.3356 19.9228 55.077 19.922Z" fill="#742C2B"/></g></g></g></g></g></g><defs><clipPath id="clip0_308_8"><rect width="60" height="60" fill="white"/></clipPath></defs><style> @keyframes translateY { 0%, 100% { transform: translateY(2px); } 50% { transform: translateY(-2px); } } @keyframes niceAnimate { 0% { transform: scale(1); } 50%{ transform: scale(.8); } 100% { transform: scale(1); } }</style></svg>