<svg width="60" height="60" viewBox="0 0 60 60" fill="none" xmlns="http://www.w3.org/2000/svg"><g id="about_1"><path id="star_3" style="transform-origin: center; transform-box: fill-box; animation: spin 2s linear infinite;" d="M23.257 13.795L22.471 19.314C22.4264 19.6313 22.469 19.9548 22.5942 20.2498C22.7194 20.5448 22.9226 20.8001 23.1818 20.9885C23.4411 21.1768 23.7467 21.2911 24.0659 21.319C24.3852 21.3469 24.706 21.2875 24.994 21.147L30 18.694L35.006 21.147C35.294 21.2875 35.6148 21.3469 35.9341 21.319C36.2533 21.2911 36.5589 21.1768 36.8182 20.9885C37.0774 20.8001 37.2806 20.5448 37.4058 20.2498C37.531 19.9548 37.5736 19.6313 37.529 19.314L36.743 13.795L40.623 9.795C40.8456 9.56446 41.0013 9.27769 41.0734 8.96542C41.1455 8.65314 41.1312 8.32714 41.0322 8.02235C40.9331 7.71756 40.753 7.44547 40.5111 7.23525C40.2692 7.02503 39.9746 6.88459 39.659 6.829L34.167 5.871L31.56 0.936996C31.4096 0.653943 31.185 0.417162 30.9103 0.25204C30.6355 0.0869173 30.321 -0.000320435 30.0005 -0.000320435C29.68 -0.000320435 29.3655 0.0869173 29.0908 0.25204C28.816 0.417162 28.5914 0.653943 28.441 0.936996L25.833 5.864L20.341 6.822C20.0254 6.87759 19.7308 7.01803 19.4889 7.22825C19.247 7.43847 19.0669 7.71056 18.9678 8.01535C18.8688 8.32014 18.8545 8.64614 18.9266 8.95842C18.9987 9.27069 19.1544 9.55746 19.377 9.788L23.257 13.795ZM27.291 9.195C27.5561 9.14871 27.8072 9.04238 28.0249 8.88413C28.2426 8.72588 28.4212 8.51991 28.547 8.282L30 5.537L31.453 8.282C31.5794 8.52063 31.759 8.72704 31.9778 8.88533C32.1966 9.04363 32.4488 9.14957 32.715 9.195L35.775 9.729L33.613 11.959C33.4256 12.1522 33.2849 12.3858 33.2017 12.6418C33.1185 12.8978 33.095 13.1695 33.133 13.436L33.571 16.511L30.782 15.144C30.5403 15.0255 30.2747 14.9639 30.0055 14.9639C29.7363 14.9639 29.4707 15.0255 29.229 15.144L26.44 16.511L26.878 13.436C26.916 13.1695 26.8925 12.8978 26.8093 12.6418C26.7261 12.3858 26.5854 12.1522 26.398 11.959L24.236 9.729L27.291 9.195Z" fill="#742C2B"/><path id="star_2" style="transform-origin: center; transform-box: fill-box; animation: spin_2 2s linear infinite;" d="M58.54 19.377L54.546 18.677L52.646 15.093C52.4956 14.8099 52.271 14.5732 51.9963 14.408C51.7216 14.2429 51.4071 14.1557 51.0865 14.1557C50.766 14.1557 50.4515 14.2429 50.1768 14.408C49.902 14.5732 49.6774 14.8099 49.527 15.093L47.627 18.676L43.633 19.376C43.3174 19.4316 43.0229 19.572 42.781 19.7823C42.5391 19.9925 42.3589 20.2646 42.2599 20.5694C42.1608 20.8741 42.1465 21.2001 42.2186 21.5124C42.2907 21.8247 42.4464 22.1115 42.669 22.342L45.496 25.251L44.924 29.265C44.8794 29.5823 44.922 29.9058 45.0473 30.2008C45.1725 30.4958 45.3756 30.7511 45.6348 30.9395C45.8941 31.1278 46.1997 31.2421 46.519 31.27C46.8382 31.2979 47.159 31.2385 47.447 31.098L51.088 29.314L54.729 31.098C55.017 31.2385 55.3378 31.2979 55.6571 31.27C55.9763 31.2421 56.282 31.1278 56.5412 30.9395C56.8005 30.7511 57.0036 30.4958 57.1288 30.2008C57.254 29.9058 57.2966 29.5823 57.252 29.265L56.68 25.251L59.502 22.339C59.7247 22.1085 59.8804 21.8217 59.9524 21.5094C60.0245 21.1971 60.0103 20.8711 59.9112 20.5664C59.8121 20.2616 59.632 19.9895 59.3901 19.7793C59.1482 19.569 58.8537 19.4286 58.538 19.373L58.54 19.377ZM53.546 23.42C53.3586 23.6132 53.2179 23.8468 53.1347 24.1028C53.0515 24.3588 53.028 24.6305 53.066 24.897L53.289 26.467C52.042 25.901 51.744 25.589 51.089 25.589C50.434 25.589 50.137 25.9 48.889 26.467L49.112 24.897C49.15 24.6305 49.1265 24.3588 49.0433 24.1028C48.9601 23.8468 48.8194 23.6132 48.632 23.42L47.532 22.281L49.094 22.008C49.3591 21.9616 49.6101 21.8553 49.8278 21.697C50.0455 21.5388 50.2241 21.3329 50.35 21.095L51.092 19.695L51.834 21.095C51.9599 21.3329 52.1384 21.5389 52.3562 21.6971C52.5739 21.8554 52.8249 21.9617 53.09 22.008L54.652 22.281L53.546 23.42Z" fill="#742C2B"/><path id="star_1" style="transform-origin: center; transform-box: fill-box; animation: spin 2s linear infinite;" d="M15.077 29.268L14.505 25.254L17.327 22.342C17.5496 22.1115 17.7053 21.8247 17.7774 21.5124C17.8495 21.2001 17.8352 20.8741 17.7362 20.5694C17.6371 20.2646 17.457 19.9925 17.2151 19.7823C16.9732 19.572 16.6786 19.4316 16.363 19.376L12.369 18.676L10.469 15.093C10.3186 14.8099 10.094 14.5732 9.81926 14.408C9.54453 14.2429 9.23004 14.1557 8.9095 14.1557C8.58897 14.1557 8.27448 14.2429 7.99975 14.408C7.72502 14.5732 7.50041 14.8099 7.35 15.093L5.45 18.677L1.456 19.377C1.14123 19.4339 0.847817 19.5752 0.60709 19.7858C0.366363 19.9964 0.187364 20.2685 0.0892057 20.5729C-0.00895257 20.8774 -0.0225837 21.2027 0.0497678 21.5143C0.122119 21.8259 0.277737 22.112 0.500003 22.342L3.32 25.25L2.748 29.264C2.70341 29.5813 2.74601 29.9048 2.87122 30.1998C2.99644 30.4948 3.19956 30.7501 3.45882 30.9385C3.71807 31.1268 4.02369 31.2411 4.34293 31.269C4.66216 31.2969 4.98298 31.2375 5.271 31.097L8.912 29.313L12.553 31.097C12.8407 31.2375 13.1612 31.297 13.4802 31.2694C13.7992 31.2417 14.1046 31.1279 14.3639 30.94C14.6232 30.7521 14.8265 30.4973 14.9521 30.2028C15.0777 29.9083 15.1209 29.5852 15.077 29.268V29.268ZM11.37 23.419C11.1826 23.6122 11.0419 23.8458 10.9587 24.1018C10.8755 24.3578 10.852 24.6295 10.89 24.896L11.114 26.466L9.69 25.766C9.44828 25.6476 9.18267 25.586 8.9135 25.586C8.64433 25.586 8.37873 25.6476 8.137 25.766L6.713 26.466L6.937 24.896C6.975 24.6295 6.95149 24.3578 6.86829 24.1018C6.78509 23.8458 6.6444 23.6122 6.457 23.419L5.357 22.28L6.919 22.007C7.18414 21.9607 7.43516 21.8544 7.65286 21.6961C7.87057 21.5379 8.04917 21.3319 8.175 21.094L8.917 19.694L9.659 21.094C9.78484 21.3319 9.96344 21.5379 10.1811 21.6961C10.3988 21.8544 10.6499 21.9607 10.915 22.007L12.477 22.28L11.37 23.419Z" fill="#742C2B"/><path id="Path 7" d="M37.259 46.359C38.2889 45.3687 39.1079 44.1805 39.6669 42.8657C40.2259 41.5509 40.5134 40.1367 40.512 38.708V30.772C40.516 29.1393 39.8722 27.5718 38.7219 26.4132C37.5716 25.2546 36.0086 24.5997 34.376 24.592H25.631C23.9984 24.5997 22.4355 25.2546 21.2851 26.4132C20.1348 27.5718 19.491 29.1393 19.495 30.772V38.708C19.4936 40.1367 19.7811 41.5509 20.3401 42.8657C20.8991 44.1805 21.7182 45.3687 22.748 46.359C20.2698 47.1703 18.1116 48.7444 16.5819 50.8562C15.0522 52.968 14.2294 55.5094 14.231 58.117V58.235C14.2197 58.4719 14.2565 58.7085 14.3394 58.9307C14.4222 59.1529 14.5493 59.356 14.7129 59.5276C14.8765 59.6992 15.0733 59.8358 15.2913 59.9292C15.5092 60.0226 15.7439 60.0707 15.981 60.0707C16.2181 60.0707 16.4528 60.0226 16.6708 59.9292C16.8887 59.8358 17.0855 59.6992 17.2491 59.5276C17.4127 59.356 17.5398 59.1529 17.6226 58.9307C17.7055 58.7085 17.7423 58.4719 17.731 58.235V58.117C17.73 56.5919 18.1236 55.0926 18.8736 53.7646C19.6236 52.4367 20.7044 51.3255 22.011 50.539C22.4509 51.9579 23.2588 53.2348 24.3526 54.24C25.4465 55.2451 26.7871 55.9424 28.238 56.261V58.235C28.2267 58.4719 28.2635 58.7085 28.3464 58.9307C28.4292 59.1529 28.5563 59.356 28.7199 59.5276C28.8835 59.6992 29.0803 59.8358 29.2982 59.9292C29.5162 60.0226 29.7509 60.0707 29.988 60.0707C30.2251 60.0707 30.4598 60.0226 30.6778 59.9292C30.8957 59.8358 31.0925 59.6992 31.2561 59.5276C31.4197 59.356 31.5468 59.1529 31.6296 58.9307C31.7125 58.7085 31.7493 58.4719 31.738 58.235V56.26C33.1891 55.9405 34.5296 55.2422 35.623 54.2362C36.7165 53.2302 37.5239 51.9524 37.963 50.533C39.2723 51.3188 40.3557 52.4305 41.1076 53.7596C41.8594 55.0887 42.254 56.59 42.253 58.117V58.235C42.2417 58.4719 42.2785 58.7085 42.3614 58.9307C42.4442 59.1529 42.5713 59.356 42.7349 59.5276C42.8985 59.6992 43.0953 59.8358 43.3132 59.9292C43.5312 60.0226 43.7659 60.0707 44.003 60.0707C44.2401 60.0707 44.4748 60.0226 44.6928 59.9292C44.9107 59.8358 45.1075 59.6992 45.2711 59.5276C45.4347 59.356 45.5618 59.1529 45.6446 58.9307C45.7275 58.7085 45.7643 58.4719 45.753 58.235V58.117C45.7555 55.5103 44.934 52.9696 43.406 50.8577C41.878 48.7459 39.7217 47.171 37.245 46.358L37.259 46.359ZM22.994 37.381C24.2878 38.2584 25.8158 38.7257 27.379 38.722C27.505 38.722 27.541 38.722 28.279 38.708C28.741 38.6983 29.1806 38.5072 29.5028 38.176C29.825 37.8448 30.004 37.4001 30.001 36.938L29.995 35.179H37.004V38.708C37.004 40.5665 36.2657 42.3489 34.9516 43.663C33.6374 44.9772 31.855 45.7155 29.9965 45.7155C28.138 45.7155 26.3556 44.9772 25.0415 43.663C23.7273 42.3489 22.989 40.5665 22.989 38.708L22.994 37.381ZM25.626 28.121H34.376C35.0763 28.1244 35.7466 28.4054 36.24 28.9024C36.7334 29.3994 37.0096 30.0717 37.008 30.772V31.65H28.241C28.0101 31.6501 27.7815 31.6961 27.5685 31.7852C27.3555 31.8743 27.1623 32.0047 27 32.169C26.222 32.956 26.579 33.86 26.495 35.104C25.5029 34.894 24.6133 34.3488 23.9759 33.56C23.3385 32.7713 22.9921 31.7871 22.995 30.773C22.9929 30.0717 23.2694 29.3982 23.7637 28.9007C24.258 28.4032 24.9297 28.1224 25.631 28.12L25.626 28.121ZM29.997 52.921C28.9402 52.917 27.9133 52.569 27.0718 51.9296C26.2304 51.2902 25.62 50.3942 25.333 49.377C26.388 49.235 26.454 49.323 33.507 49.296C33.8933 49.2967 34.2792 49.3231 34.662 49.375C34.3752 50.3925 33.7647 51.2889 32.923 51.9285C32.0813 52.5681 31.0542 52.9162 29.997 52.92V52.921Z" fill="#742C2B"/></g><style> @keyframes spin { 0% { transform: rotate(0deg); } 100% { transform: rotate(360deg); } } @keyframes spin_2 { 0% { transform: rotate(0deg); } 100% { transform: rotate(-360deg); } }</style></svg>